<svg width="38" height="38" viewBox="0 0 38 38" fill="none" xmlns="http://www.w3.org/2000/svg">
<path d="M18.888 0.680664C29.0379 0.680664 37.3424 8.98514 37.3424 19.1351C37.3424 29.285 29.0379 37.5895 18.888 37.5895C8.73807 37.5895 0.433594 29.285 0.433594 19.1351C0.433594 8.98514 8.73807 0.680664 18.888 0.680664Z" fill="white"/>
<g clip-path="url(#clip0)">
<path d="M15.0674 25.9766V15.6544H11.638V25.9766H15.0674ZM13.3527 14.2463C14.545 14.2463 15.2945 13.4514 15.2945 12.4635C15.2718 11.4528 14.545 10.6807 13.3754 10.6807C12.2058 10.6807 11.4336 11.4528 11.4336 12.4635C11.4336 13.4514 12.1831 14.2463 13.33 14.2463H13.3527Z" fill="#2351FF"/>
<path d="M16.9629 25.9764H20.3923V20.2078C20.3923 19.9012 20.415 19.5946 20.5058 19.3675C20.7557 18.7543 21.3234 18.1184 22.2659 18.1184C23.5037 18.1184 24.0033 19.0609 24.0033 20.4576V25.9764H27.4327V20.0602C27.4327 16.892 25.7407 15.4158 23.481 15.4158C21.63 15.4158 20.8124 16.4491 20.3696 17.1532H20.3923V15.6542H16.9629C17.0083 16.6195 16.9629 25.9764 16.9629 25.9764Z" fill="#2351FF"/>
</g>
<defs>
<clipPath id="clip0">
<rect width="16" height="15.296" fill="white" transform="translate(11.4336 10.6807)"/>
</clipPath>
</defs>
</svg>
