<svg width="144" height="59" viewBox="0 0 144 59" fill="none" xmlns="http://www.w3.org/2000/svg">
<path d="M4.81788 2.832C5.18054 3.17333 5.36188 3.60533 5.36188 4.128C5.36188 4.65067 5.18054 5.08267 4.81788 5.424C4.46054 5.76 3.99121 5.928 3.40988 5.928H2.41788V8H1.67388V2.32H3.40988C3.99121 2.32 4.46054 2.49067 4.81788 2.832ZM4.29788 4.928C4.51654 4.72 4.62588 4.45333 4.62588 4.128C4.62588 3.80267 4.51654 3.536 4.29788 3.328C4.08454 3.12 3.78854 3.016 3.40988 3.016H2.41788V5.24H3.40988C3.78854 5.24 4.08454 5.136 4.29788 4.928ZM7.90838 8.08C7.30571 8.08 6.80438 7.88 6.40438 7.48C6.00971 7.07467 5.81238 6.58133 5.81238 6C5.81238 5.41867 6.00971 4.928 6.40438 4.528C6.80438 4.12267 7.30571 3.92 7.90838 3.92C8.50571 3.92 9.00171 4.12267 9.39638 4.528C9.79638 4.928 9.99638 5.41867 9.99638 6C9.99638 6.58133 9.79638 7.07467 9.39638 7.48C9.00171 7.88 8.50571 8.08 7.90838 8.08ZM6.90038 7.024C7.16171 7.30133 7.49771 7.44 7.90838 7.44C8.31904 7.44 8.65238 7.30133 8.90838 7.024C9.16438 6.74667 9.29238 6.40533 9.29238 6C9.29238 5.59467 9.16438 5.25333 8.90838 4.976C8.65238 4.69867 8.31904 4.56 7.90838 4.56C7.49771 4.56 7.16171 4.69867 6.90038 4.976C6.64438 5.25333 6.51638 5.59467 6.51638 6C6.51638 6.40533 6.64438 6.74667 6.90038 7.024ZM14.3603 8L13.3683 5.128L12.3843 8H11.7763L10.4163 4H11.1363L12.1043 6.92L13.1043 4H13.6323L14.6323 6.92L15.6003 4H16.3283L14.9683 8H14.3603ZM18.8143 8.08C18.2009 8.08 17.7023 7.88267 17.3183 7.488C16.9343 7.09333 16.7423 6.59733 16.7423 6C16.7423 5.408 16.9369 4.91467 17.3263 4.52C17.7156 4.12 18.2143 3.92 18.8223 3.92C19.3609 3.92 19.8116 4.10133 20.1743 4.464C20.5423 4.82133 20.7263 5.30933 20.7263 5.928C20.7263 6.008 20.7236 6.07733 20.7183 6.136H17.4383C17.4489 6.50933 17.5823 6.82133 17.8383 7.072C18.0996 7.32267 18.4276 7.448 18.8223 7.448C19.3823 7.448 19.7983 7.216 20.0703 6.752L20.6143 7.128C20.2249 7.76267 19.6249 8.08 18.8143 8.08ZM17.4863 5.576H20.0223C19.9689 5.256 19.8276 5.00267 19.5983 4.816C19.3743 4.624 19.1076 4.528 18.7983 4.528C18.4836 4.528 18.2009 4.624 17.9503 4.816C17.7049 5.00267 17.5503 5.256 17.4863 5.576ZM21.7027 8V4H22.3907V4.592C22.4707 4.42133 22.612 4.27467 22.8147 4.152C23.0227 4.024 23.2414 3.96 23.4707 3.96C23.588 3.96 23.7054 3.97333 23.8227 4L23.7347 4.688C23.6387 4.656 23.524 4.64 23.3907 4.64C23.1774 4.64 22.9747 4.70933 22.7827 4.848C22.596 4.98133 22.4654 5.168 22.3907 5.408V8H21.7027ZM26.1411 8.08C25.5544 8.08 25.0717 7.88 24.6931 7.48C24.3144 7.07467 24.1251 6.58133 24.1251 6C24.1251 5.41867 24.3144 4.928 24.6931 4.528C25.0717 4.12267 25.5544 3.92 26.1411 3.92C26.6904 3.92 27.1251 4.09333 27.4451 4.44V2.16H28.1331V8H27.4451V7.56C27.1251 7.90667 26.6904 8.08 26.1411 8.08ZM26.1971 7.448C26.7571 7.448 27.1731 7.22667 27.4451 6.784V5.208C27.1731 4.77067 26.7571 4.552 26.1971 4.552C25.8024 4.552 25.4771 4.69333 25.2211 4.976C24.9651 5.25333 24.8371 5.59467 24.8371 6C24.8371 6.40533 24.9651 6.74933 25.2211 7.032C25.4771 7.30933 25.8024 7.448 26.1971 7.448ZM33.3509 8.08C32.8123 8.08 32.3776 7.90667 32.0469 7.56V8H31.3589V2.16H32.0469V4.44C32.3776 4.09333 32.8123 3.92 33.3509 3.92C33.9376 3.92 34.4203 4.12267 34.7989 4.528C35.1776 4.928 35.3669 5.41867 35.3669 6C35.3669 6.58133 35.1776 7.07467 34.7989 7.48C34.4203 7.88 33.9376 8.08 33.3509 8.08ZM33.2949 7.448C33.6896 7.448 34.0149 7.30933 34.2709 7.032C34.5269 6.74933 34.6549 6.40533 34.6549 6C34.6549 5.59467 34.5269 5.25333 34.2709 4.976C34.0149 4.69333 33.6896 4.552 33.2949 4.552C32.7349 4.552 32.3189 4.77067 32.0469 5.208V6.784C32.3189 7.22667 32.7349 7.448 33.2949 7.448ZM37.393 9.552H36.625L37.441 7.792L35.689 4H36.449L37.825 7.04L39.193 4H39.961L37.393 9.552Z" fill="#A4A8BB"/>
<g clip-path="url(#clip0)">
<path d="M4.1005 17.082C4.1005 16.7503 3.14238 15.829 2.82915 15.829H2.01843V15.0183H6.82747L11.7655 27.4555H11.876L17.0904 15.0183H21.402V15.829H20.5913C20.2781 15.829 19.3199 16.7319 19.3199 17.082V29.4454C19.3199 29.7771 20.2781 30.6984 20.5913 30.6984H21.402V31.5091H14.9899V30.6984H15.8007C16.1139 30.6984 17.072 29.7955 17.072 29.4454V17.4505L11.0653 31.8039L5.05863 17.1925V29.4454C5.05863 29.7771 6.01675 30.6984 6.32998 30.6984H7.1407V31.5091H2V30.6984H2.81072C3.12395 30.6984 4.08208 29.7955 4.08208 29.4454V17.082H4.1005Z" fill="#A4A8BB"/>
<path d="M28.3293 24.4708C28.6241 22.8125 28.3478 21.32 26.5236 21.32C24.3863 21.32 23.3545 23.0151 23.3545 25.5394C23.3545 27.9163 24.8653 29.8878 27.3159 29.8878C29.1769 29.8878 29.9692 29.2245 30.7062 27.99H31.3695C30.6694 30.3301 29.2322 31.7857 26.5605 31.7857C23.594 31.7857 21.6777 29.2429 21.6777 26.2212C21.6777 22.7756 23.9625 20.5093 26.7816 20.5093C28.4583 20.5093 29.5823 21.0252 30.5588 22.0017L28.9926 24.4339L28.3293 24.4708Z" fill="#A4A8BB"/>
<path d="M49.8886 18.2798C50.6809 18.2798 51.2705 17.7455 51.2705 16.8979C51.2705 16.0688 50.6809 15.5344 49.8886 15.5344C49.0963 15.5344 48.4883 16.0503 48.4883 16.8979C48.4883 17.7455 49.0963 18.2798 49.8886 18.2798Z" fill="#A4A8BB"/>
<path d="M65.0517 30.6985C64.7384 30.6985 63.8724 29.9246 63.8724 29.5745V23.6231C63.8724 21.7806 62.5642 20.5645 60.9059 20.5645C58.9897 20.5645 57.9763 21.67 56.6865 22.9782L56.2811 20.7856H52.9093V21.5963H53.5726C53.8858 21.5963 54.7518 22.3886 54.7518 22.7203V29.5561C54.7518 29.9246 53.8858 30.6801 53.5726 30.6801H52.9093H52.246C51.9512 30.6801 51.0667 29.9062 51.0667 29.5561V20.7672H47.2342V21.5779H47.8976C48.2108 21.5779 49.0768 22.3702 49.0768 22.7018V29.5561C49.0768 29.9246 48.2108 30.6801 47.8976 30.6801H47.2342H46.6999C46.3682 30.6801 45.0232 29.6667 44.7468 29.2982L38.9981 21.6332L43.0148 17.3216C43.2359 17.0637 44.8021 15.8291 45.1153 15.8291H45.9076V15.0184H39.9378V15.8291H40.7301C41.0433 15.8291 41.983 16.9531 41.725 17.2479L35.8289 23.8074V17.0637C35.8289 16.732 36.787 15.8107 37.1002 15.8107H37.911V15H31.4805V15.8107H32.2912C32.6044 15.8107 33.5625 16.7136 33.5625 17.0637V29.4271C33.5625 29.7588 32.6044 30.6801 32.2912 30.6801H31.4805V31.4908H37.911V30.6801H37.1002C36.787 30.6801 35.8289 29.7772 35.8289 29.4271V25.0603L37.5056 23.2546L43.2175 31.4908H47.2711H52.9277H58.529V30.6801H57.921C57.6078 30.6801 56.7418 29.9062 56.7418 29.5561V24.1022C56.7418 23.3836 58.7133 21.8911 60.2242 21.8911C61.385 21.8911 61.9193 22.6834 61.9193 23.7337V29.5561C61.9193 29.9246 61.0533 30.6801 60.7401 30.6801H60.1321V31.4908H65.6044V30.6801H65.0517V30.6985Z" fill="#A4A8BB"/>
<path d="M67.0414 27.7504C67.0414 28.7453 68.497 30.9011 70.8002 30.9011C72.1268 30.9011 72.8823 30.422 72.8823 29.4271C72.8823 28.2294 71.8136 27.8241 70.8739 27.4187C70.1184 27.1055 69.5104 26.8475 68.6628 26.4606C67.373 25.871 66.3965 25.005 66.3965 23.5309C66.3965 21.6147 67.5573 20.4907 69.6025 20.4907C70.7817 20.4907 71.4451 21.0619 72.2558 21.0619C72.569 21.0619 72.7533 20.9882 72.8454 20.7671H73.435V24.0653H72.7717C72.7717 23.1808 71.5188 21.3014 69.5288 21.3014C68.2759 21.3014 67.6863 21.8542 67.6863 22.7202C67.6863 23.6415 68.3127 23.9916 69.4367 24.4706C70.2474 24.8023 70.8554 25.0787 71.7399 25.4287C72.9007 25.8894 74.2089 26.8107 74.2089 28.5242C74.2089 30.5695 72.8085 31.7671 70.7817 31.7671C69.4183 31.7671 68.626 31.1406 67.7047 31.1406C67.2809 31.1406 67.1704 31.2512 66.894 31.5092H66.3965V27.7504H67.0414Z" fill="#A4A8BB"/>
<path d="M74.8906 26.1291C74.8906 22.96 77.0464 20.491 79.8102 20.5094C82.2424 20.5278 83.5875 22.1861 83.698 24.2682L83.7349 25.042L76.6042 25.6132C76.6042 27.769 78.0967 29.8879 80.5288 29.8879C82.3714 29.8879 83.2005 29.1878 83.8639 27.9717H84.5272C83.827 30.3117 82.4819 31.7489 79.8655 31.7489C76.8437 31.7489 74.8906 29.1509 74.8906 26.1291ZM81.9108 24.3972C82.095 22.8863 81.837 21.3385 79.755 21.3385C77.5439 21.3385 76.6595 23.1811 76.5858 24.8394L81.9108 24.3972Z" fill="#A4A8BB"/>
<path d="M85.5778 22.8124C85.4119 22.4439 84.4722 21.5964 84.1959 21.5964H83.7168V20.7856H89.3919V21.5964H88.7285C88.4337 21.5964 87.7704 22.3518 87.7704 22.7572L90.2579 28.4875L92.7085 22.7756C92.7269 22.3518 92.082 21.5964 91.7872 21.5964H91.1239V20.7856H95.3986V21.5964H94.9011C94.6431 21.5964 93.8877 22.4071 93.6482 22.7756L89.9999 30.9934L87.3282 36.9263L86.3516 36.4657L89.2076 30.6248L85.5778 22.8124Z" fill="#A4A8BB"/>
<path d="M33.8758 40.0219C33.8758 41.3301 34.7786 42.3987 36.2158 42.9515C38.3532 45.2363 40.8959 47.6684 43.1438 49.6584C43.7702 48.6081 44.0098 47.5026 44.0098 46.1575C44.0098 44.6467 43.0148 43.7254 41.4118 43.6885V42.8778H47.2342V43.6885H46.6078C46.2945 43.6885 45.1522 44.9783 45.1337 45.4758C45.0969 46.8761 44.7099 48.6266 43.6597 50.119C44.8573 51.1693 46.055 52.1274 47.0131 52.7907H48.0081V53.6014H46.2208C44.6178 53.6014 43.4754 53.1776 42.1304 51.9247C40.8222 53.1961 39.1455 53.8962 36.7133 53.8962C34.0416 53.8962 31.4805 51.9247 31.4805 49.0319C31.4805 46.7472 32.6413 45.0704 34.1337 44.0202C33.3414 43.0068 32.8071 42.0302 32.8071 40.5746C32.8071 38.2162 34.3548 36.908 36.7686 36.908C38.2795 36.908 39.0718 37.4054 39.7719 37.4054C40.1404 37.4054 40.3615 37.387 40.5458 37.1106H41.246V40.9984H40.5458C40.5458 39.8929 38.9243 37.6634 36.7133 37.6634C34.926 37.6634 33.8758 38.5294 33.8758 40.0219ZM33.1756 47.9448C33.1756 50.3033 35.6815 52.5696 38.0399 52.5696C39.514 52.5696 40.6932 52.1642 41.6145 51.4641C39.2192 49.4004 36.5475 46.8209 34.4838 44.4624C33.6178 45.3468 33.1756 46.2497 33.1756 47.9448Z" fill="#A4A8BB"/>
<path d="M64.9233 42.933C64.9233 41.2379 63.0254 37.7923 59.9115 37.7923C57.0556 37.7923 55.3604 39.3769 55.0656 43.0989C54.9551 44.5545 54.9919 45.8443 55.1025 47.2815C55.3789 50.1558 57.3688 52.5327 60.7223 52.5327C63.5782 52.5327 64.9601 51.3351 66.0288 49.1608H66.8948C65.8261 52.1089 63.5229 53.8778 60.2432 53.8778C55.5078 53.8778 52.4492 49.99 52.4492 45.2731C52.4492 40.5562 55.213 36.7974 59.8378 36.7974C61.6067 36.7974 62.7122 37.516 64.002 37.516C64.5179 37.516 64.7759 37.387 65.0154 37.0922H65.6234V42.933H64.9233Z" fill="#A4A8BB"/>
<path d="M68 48.2212C68 44.7572 70.4874 42.583 73.325 42.583C76.1625 42.583 78.6499 44.7572 78.6499 48.2212C78.6499 51.6852 76.1625 53.8778 73.325 53.8778C70.5059 53.8778 68 51.6852 68 48.2212ZM76.4941 50.0085C76.6231 48.9214 76.6231 47.4473 76.4941 46.3602C76.2914 44.6467 75.3333 43.4859 73.3434 43.4859C71.4271 43.4859 70.4506 44.6467 70.1926 46.3418C70.0268 47.3921 70.0268 48.9214 70.1926 49.99C70.4506 51.6483 71.3719 52.8644 73.3434 52.8644C75.3702 52.8644 76.2914 51.6852 76.4941 50.0085Z" fill="#A4A8BB"/>
<path d="M96.0256 51.6297C96.0256 51.9982 96.8363 52.7536 97.1496 52.7536H97.6471V53.5644H92.3037V52.7721H92.9117C93.2249 52.7721 94.0357 51.9982 94.0357 51.6481V45.6967C94.0357 44.6464 93.5198 43.9278 92.3589 43.9278C90.9586 43.9278 89.2082 45.2913 89.2082 46.0099V51.6481C89.2082 52.0166 90.0189 52.7721 90.3321 52.7721H90.9402V53.5828H85.4862V52.7721H86.0943C86.4075 52.7721 87.2182 51.9982 87.2182 51.6481V45.6967C87.2182 44.6464 86.6655 43.9278 85.5231 43.9278C84.1228 43.9278 82.3723 45.3466 82.3723 46.0836V51.6481C82.3723 52.0166 83.1831 52.7721 83.4963 52.7721H84.1043V53.5828H78.6504V52.7721H79.2584C79.5717 52.7721 80.3824 51.9982 80.3824 51.6481V44.8123C80.3824 44.4806 79.5717 43.6883 79.2584 43.6883H78.6504V42.8776H81.9301L82.3539 44.9412C83.57 43.6515 84.3623 42.6565 86.2417 42.6565C87.6605 42.6565 88.8765 43.4304 89.0792 44.9228C90.3874 43.633 91.235 42.6749 93.0407 42.6749C94.6437 42.6749 95.9703 43.762 95.9703 45.7151V51.6297H96.0256Z" fill="#A4A8BB"/>
<path d="M100.816 42.8408L101.184 45.0335C102.105 43.3199 103.285 42.5645 105.053 42.5645C107.651 42.5645 109.236 44.7571 109.236 48.0368C109.236 51.3165 107.43 53.7856 104.814 53.7856C102.934 53.7856 101.94 53.067 101.166 51.6851V56.8258C101.166 57.1943 101.995 57.9497 102.29 57.9497H102.99V58.7604H97.3516V57.9497H98.0517C98.365 57.9497 99.1757 57.1758 99.1757 56.8258V44.7939C99.1757 44.4623 98.365 43.67 98.0517 43.67H97.3516V42.8593H100.816V42.8408ZM101.147 46.7655V49.5661C101.147 51.2428 102.437 52.6616 104.243 52.6616C106.085 52.6616 106.933 51.5008 107.172 49.8057C107.301 48.7923 107.338 47.613 107.191 46.6181C106.97 44.9229 106.03 43.8358 104.501 43.8358C102.695 43.8542 101.682 45.0887 101.147 46.7655Z" fill="#A4A8BB"/>
<path d="M132.489 52.7722C132.176 52.7722 131.31 51.9983 131.31 51.6482V45.6968C131.31 43.8543 130.002 42.6382 128.344 42.6382C126.427 42.6382 125.414 43.7437 124.124 45.0519L123.719 42.8593H120.347V43.67H121.01C121.323 43.67 122.189 44.4623 122.189 44.7939V51.6298C122.189 51.9983 121.323 52.7537 121.01 52.7537H120.347H119.72C119.426 52.7537 118.541 51.9799 118.541 51.6298V45.7889C118.541 43.6884 116.846 42.6013 114.524 42.6013C112.35 42.6013 111.097 43.3568 110.213 44.2596L111.632 46.4154H112.406C111.613 44.5728 112.203 43.412 114.045 43.412C115.962 43.412 116.588 44.278 116.551 45.7889L116.533 47.134L113.769 47.7052C112.258 48.0184 110.305 48.7738 110.305 50.8928C110.305 52.6432 111.558 53.8224 113.032 53.8224C114.617 53.8224 115.759 52.5695 116.607 51.464L116.883 53.6197H120.347H125.948V52.7722H125.34C125.027 52.7722 124.161 51.9983 124.161 51.6482V46.1943C124.161 45.4757 126.133 43.9832 127.643 43.9832C128.804 43.9832 129.339 44.7755 129.339 45.8258V51.6666C129.339 52.0352 128.473 52.7906 128.159 52.7906H127.551V53.6013H133.024V52.7722H132.489ZM116.57 50.4321C116.109 51.2244 114.985 52.3115 113.935 52.3115C112.866 52.3115 112.221 51.5192 112.221 50.598C112.221 49.5293 112.682 48.8107 114.009 48.4606L116.57 47.7973V50.4321Z" fill="#A4A8BB"/>
<path d="M133.816 44.8862C133.65 44.5177 132.711 43.6701 132.434 43.6701H131.955V42.8594H137.63V43.6701H136.967C136.672 43.6701 136.009 44.4255 136.009 44.8309L138.496 50.5612L140.947 44.8493C140.965 44.4255 140.32 43.6701 140.025 43.6701H139.362V42.8594H143.637V43.6701H143.139C142.881 43.6701 142.126 44.4808 141.886 44.8493L138.238 53.0671L135.548 59.0001L134.571 58.5394L137.427 52.6986L133.816 44.8862Z" fill="#A4A8BB"/>
</g>
<defs>
<clipPath id="clip0">
<rect width="141.637" height="44" fill="white" transform="translate(2 15)"/>
</clipPath>
</defs>
</svg>
