<svg width="20" height="20" viewBox="0 0 20 20" fill="none" xmlns="http://www.w3.org/2000/svg">
<rect x="0.5" y="0.5" width="19" height="19" rx="9.5" stroke="#34C759"/>
<g clip-path="url(#clip0)">
<path d="M14.2303 7.00435C14.0314 7.00435 13.8573 7.09136 13.7206 7.2281C13.5466 7.40214 12.4402 8.54578 11.2841 9.72672C10.3518 10.6839 9.69297 11.3552 9.32005 11.7405L7.23165 10.1369C6.92087 9.86346 6.4485 9.90076 6.17502 10.2115C5.90154 10.5223 5.93883 10.9947 6.2496 11.2682C6.27447 11.293 6.29933 11.3055 6.32419 11.3303L8.93469 13.3193C9.23303 13.543 9.65568 13.5182 9.91673 13.2571C10.0908 13.0831 11.1971 11.9519 12.3532 10.7709C13.4968 9.58998 14.6902 8.37175 14.7648 8.28473C15.0631 7.99882 15.0631 7.52645 14.7772 7.2281C14.6405 7.07893 14.4416 6.99192 14.2303 7.00435Z" fill="#34C759"/>
</g>
<defs>
<clipPath id="clip0">
<rect width="9" height="6.46409" fill="white" transform="translate(6 7)"/>
</clipPath>
</defs>
</svg>
