<svg width="18" height="10" viewBox="0 0 18 10" fill="none" xmlns="http://www.w3.org/2000/svg">
<path d="M8.88179 0.323153C8.68936 0.355224 8.49693 0.451435 8.33657 0.579722L0.318644 8.27693C-0.0982875 8.62971 -0.130359 9.23908 0.190358 9.62394C0.543146 10.0409 1.15251 10.0729 1.53737 9.75222C1.56944 9.72014 1.60151 9.68807 1.63358 9.68807L8.978 2.6323L16.3224 9.68807C16.6752 10.0729 17.2846 10.105 17.6694 9.72015C18.0543 9.36736 18.0864 8.758 17.7015 8.37314C17.6694 8.34107 17.6374 8.30899 17.6053 8.30899L9.58736 0.611786C9.45908 0.387284 9.17043 0.291081 8.88179 0.323153Z" fill="#A4A8BB"/>
</svg>
