<svg width="14" height="14" viewBox="0 0 14 14" fill="none" xmlns="http://www.w3.org/2000/svg">
<path d="M11.8653 3.10318L13.1817 3.21019C13.2884 3.21019 13.3952 3.17452 13.4663 3.10318L13.8933 2.67516C13.9644 2.60382 14 2.49681 14 2.42548V0.356688C14 0.142675 13.8221 0 13.6442 0H11.5807C11.474 0 11.4028 0.0356685 11.3316 0.107006L5.5324 5.92102C4.0737 5.42166 2.40152 5.74267 1.22745 6.88408C-0.409149 8.52484 -0.409149 11.1643 1.22745 12.7694C2.86404 14.4102 5.49682 14.4102 7.09784 12.7694C8.27192 11.5924 8.59212 9.91592 8.05845 8.4535L9.09022 7.41911C9.16137 7.34777 9.19695 7.24076 9.19695 7.13376L9.09022 5.81401C9.05464 5.6 9.26811 5.38599 9.48158 5.42166L10.798 5.52866C10.9047 5.52866 11.0114 5.49299 11.0826 5.42166L11.3672 5.13631C11.4384 5.06497 11.474 4.95796 11.474 4.85095L11.3672 3.53121C11.4384 3.28153 11.6518 3.06752 11.8653 3.10318ZM4.25159 11.5924C3.75349 12.0917 2.97077 12.0917 2.47268 11.5924C1.97459 11.093 1.97459 10.3083 2.47268 9.80892C2.97077 9.30955 3.75349 9.30955 4.25159 9.80892C4.7141 10.3083 4.7141 11.093 4.25159 11.5924Z" fill="#D2D5E0"/>
</svg>
