<svg width="22" height="22" viewBox="0 0 22 22" fill="none" xmlns="http://www.w3.org/2000/svg">
<path d="M8.86133 21.0742C9.56445 21.0742 10.1152 20.793 10.502 20.2188L21.4707 3.29688C21.752 2.875 21.8691 2.48828 21.8691 2.125C21.8691 1.16406 21.166 0.472656 20.1816 0.472656C19.502 0.472656 19.0918 0.707031 18.6816 1.36328L8.81445 16.9727L3.77539 10.6211C3.37695 10.1406 2.9668 9.91797 2.38086 9.91797C1.38477 9.91797 0.669922 10.6211 0.669922 11.5938C0.669922 12.0156 0.810547 12.4141 1.17383 12.8359L7.23242 20.2773C7.68945 20.8281 8.19336 21.0742 8.86133 21.0742Z" fill="white"/>
</svg>
