<svg width="37" height="37" viewBox="0 0 37 37" fill="none" xmlns="http://www.w3.org/2000/svg">
<path d="M9.19239 9.19238C8.64581 9.73895 8.64581 10.6333 9.19239 11.1799L16.3972 18.3848L9.19239 25.5896C8.64581 26.1362 8.64581 27.0306 9.19239 27.5772C9.73896 28.1237 10.6334 28.1237 11.1799 27.5772L18.3848 20.3723L25.5896 27.5772C26.1362 28.1237 27.0306 28.1237 27.5772 27.5772C28.1237 27.0306 28.1237 26.1362 27.5772 25.5896L20.3723 18.3848L27.5772 11.1799C28.1237 10.6333 28.1237 9.73895 27.5772 9.19238C27.0306 8.6458 26.1362 8.6458 25.5896 9.19238L18.3848 16.3972L11.1799 9.19238C10.6334 8.6458 9.73896 8.6458 9.19239 9.19238Z" fill="#232526"/>
</svg>
