<svg width="190" height="216" viewBox="0 0 190 216" fill="none" xmlns="http://www.w3.org/2000/svg">
<g clip-path="url(#clip0)">
<path opacity="0.8" d="M189.475 68.232H16.2703C7.55756 68.232 0.524414 61.1989 0.524414 52.4862V0H173.729C182.442 0 189.475 7.03315 189.475 15.7459V68.232Z" fill="url(#paint0_linear)"/>
<path opacity="0.8" d="M189.475 141.713H16.2703C7.55756 141.713 0.524414 134.68 0.524414 125.967V73.4807H173.729C182.442 73.4807 189.475 80.5139 189.475 89.2266V141.713Z" fill="url(#paint1_linear)"/>
<path opacity="0.8" d="M189.475 215.193H16.2703C7.55756 215.193 0.524414 208.16 0.524414 199.448V146.961H173.729C182.442 146.961 189.475 153.995 189.475 162.707V215.193Z" fill="url(#paint2_linear)"/>
<mask id="mask0" mask-type="alpha" maskUnits="userSpaceOnUse" x="22" y="176" width="23" height="15">
<path d="M31.2963 190.096L22.2363 181.036C22.0371 180.837 22.0371 180.538 22.2363 180.339C22.4354 180.14 22.7341 180.14 22.9332 180.339L31.2963 188.702L43.3931 176.606C43.5922 176.407 43.8909 176.407 44.09 176.606C44.2891 176.805 44.2891 177.103 44.09 177.303L31.2963 190.096Z" fill="url(#paint3_linear)"/>
</mask>
<g mask="url(#mask0)">
<path d="M31.2963 190.096L22.2363 181.036C22.0371 180.837 22.0371 180.538 22.2363 180.339C22.4354 180.14 22.7341 180.14 22.9332 180.339L31.2963 188.702L43.3931 176.606C43.5922 176.407 43.8909 176.407 44.09 176.606C44.2891 176.805 44.2891 177.103 44.09 177.303L31.2963 190.096Z" fill="url(#paint4_linear)"/>
</g>
<mask id="mask1" mask-type="alpha" maskUnits="userSpaceOnUse" x="8" y="159" width="49" height="49">
<path d="M32.5411 207.321C19.2497 207.321 8.39746 196.468 8.39746 183.177C8.39746 169.885 19.2497 159.033 32.5411 159.033C45.8326 159.033 56.6847 169.885 56.6847 183.177C56.6847 196.468 45.8326 207.321 32.5411 207.321ZM32.5411 160.029C19.7972 160.029 9.39308 170.433 9.39308 183.177C9.39308 195.921 19.7972 206.325 32.5411 206.325C45.285 206.325 55.6891 195.921 55.6891 183.177C55.6891 170.433 45.285 160.029 32.5411 160.029Z" fill="url(#paint5_linear)"/>
</mask>
<g mask="url(#mask1)">
<path d="M32.5411 207.321C19.2497 207.321 8.39746 196.468 8.39746 183.177C8.39746 169.885 19.2497 159.033 32.5411 159.033C45.8326 159.033 56.6847 169.885 56.6847 183.177C56.6847 196.468 45.8326 207.321 32.5411 207.321ZM32.5411 160.029C19.7972 160.029 9.39308 170.433 9.39308 183.177C9.39308 195.921 19.7972 206.325 32.5411 206.325C45.285 206.325 55.6891 195.921 55.6891 183.177C55.6891 170.433 45.285 160.029 32.5411 160.029Z" fill="url(#paint6_linear)"/>
</g>
<g opacity="0.7">
<path opacity="0.7" d="M155.358 27.2928H84.5019C83.872 27.2928 83.4521 26.8729 83.4521 26.2431C83.4521 25.6132 83.872 25.1934 84.5019 25.1934H155.358C155.988 25.1934 156.408 25.6132 156.408 26.2431C156.408 26.8729 155.988 27.2928 155.358 27.2928Z" fill="white"/>
</g>
<g opacity="0.7">
<path opacity="0.7" d="M74.0052 27.2928H34.6405C34.0107 27.2928 33.5908 26.8729 33.5908 26.2431C33.5908 25.6132 34.0107 25.1934 34.6405 25.1934H74.0052C74.635 25.1934 75.0549 25.6132 75.0549 26.2431C75.0549 26.8729 74.635 27.2928 74.0052 27.2928Z" fill="white"/>
</g>
<g opacity="0.7">
<path opacity="0.7" d="M126.491 43.0387H34.6405C34.0107 43.0387 33.5908 42.6188 33.5908 41.9889C33.5908 41.3591 34.0107 40.9392 34.6405 40.9392H126.491C127.121 40.9392 127.541 41.3591 127.541 41.9889C127.541 42.6188 127.121 43.0387 126.491 43.0387Z" fill="white"/>
</g>
<g opacity="0.7">
<path opacity="0.7" d="M155.359 100.774H113.37C112.74 100.774 112.32 100.354 112.32 99.7238C112.32 99.094 112.74 98.6741 113.37 98.6741H155.359C155.989 98.6741 156.409 99.094 156.409 99.7238C156.409 100.354 155.989 100.774 155.359 100.774Z" fill="white"/>
</g>
<g opacity="0.7">
<path opacity="0.7" d="M102.873 100.774H34.6405C34.0107 100.774 33.5908 100.354 33.5908 99.7238C33.5908 99.094 34.0107 98.6741 34.6405 98.6741H102.873C103.502 98.6741 103.922 99.094 103.922 99.7238C103.922 100.354 103.502 100.774 102.873 100.774Z" fill="white"/>
</g>
<g opacity="0.7">
<path opacity="0.7" d="M126.491 116.519H34.6405C34.0107 116.519 33.5908 116.099 33.5908 115.47C33.5908 114.84 34.0107 114.42 34.6405 114.42H126.491C127.121 114.42 127.541 114.84 127.541 115.47C127.541 116.099 127.121 116.519 126.491 116.519Z" fill="white"/>
</g>
<g opacity="0.7">
<path opacity="0.7" d="M155.359 174.254H87.1269C86.497 174.254 86.0771 173.834 86.0771 173.205C86.0771 172.575 86.497 172.155 87.1269 172.155H155.359C155.989 172.155 156.409 172.575 156.409 173.205C156.409 173.834 155.989 174.254 155.359 174.254Z" fill="white"/>
</g>
<g opacity="0.7">
<path opacity="0.7" d="M155.359 190H113.37C112.74 190 112.32 189.58 112.32 188.95C112.32 188.32 112.74 187.9 113.37 187.9H155.359C155.989 187.9 156.409 188.32 156.409 188.95C156.409 189.58 155.989 190 155.359 190Z" fill="white"/>
</g>
</g>
<defs>
<linearGradient id="paint0_linear" x1="200.68" y1="34.116" x2="-126.298" y2="34.116" gradientUnits="userSpaceOnUse">
<stop stop-color="#2351FF"/>
<stop offset="1" stop-color="white"/>
</linearGradient>
<linearGradient id="paint1_linear" x1="200.68" y1="107.597" x2="-126.298" y2="107.597" gradientUnits="userSpaceOnUse">
<stop stop-color="#2351FF"/>
<stop offset="1" stop-color="white"/>
</linearGradient>
<linearGradient id="paint2_linear" x1="200.68" y1="181.077" x2="-126.298" y2="181.077" gradientUnits="userSpaceOnUse">
<stop stop-color="#2351FF"/>
<stop offset="1" stop-color="white"/>
</linearGradient>
<linearGradient id="paint3_linear" x1="22.0869" y1="183.28" x2="44.2393" y2="183.28" gradientUnits="userSpaceOnUse">
<stop stop-color="#B3B3B3"/>
<stop offset="1" stop-color="#1A1A1A"/>
</linearGradient>
<linearGradient id="paint4_linear" x1="22.0869" y1="183.28" x2="44.2393" y2="183.28" gradientUnits="userSpaceOnUse">
<stop stop-color="white"/>
<stop offset="1" stop-color="white"/>
</linearGradient>
<linearGradient id="paint5_linear" x1="8.39746" y1="183.177" x2="56.6847" y2="183.177" gradientUnits="userSpaceOnUse">
<stop stop-color="#0D0D0D"/>
<stop offset="1" stop-color="#B3B3B3"/>
</linearGradient>
<linearGradient id="paint6_linear" x1="8.39746" y1="183.177" x2="56.6847" y2="183.177" gradientUnits="userSpaceOnUse">
<stop stop-color="white"/>
<stop offset="1" stop-color="white"/>
</linearGradient>
<clipPath id="clip0">
<rect width="190" height="215.193" fill="white"/>
</clipPath>
</defs>
</svg>
