<svg width="20" height="20" viewBox="0 0 20 20" fill="none" xmlns="http://www.w3.org/2000/svg">
<path d="M1.19239 1.19238C0.645814 1.73895 0.645814 2.63335 1.19239 3.17992L8.39723 10.3848L1.19239 17.5896C0.645814 18.1362 0.645814 19.0306 1.19239 19.5772C1.73896 20.1237 2.63336 20.1237 3.17993 19.5772L10.3848 12.3723L17.5896 19.5772C18.1362 20.1237 19.0306 20.1237 19.5772 19.5772C20.1237 19.0306 20.1237 18.1362 19.5772 17.5896L12.3723 10.3848L19.5772 3.17992C20.1237 2.63335 20.1237 1.73895 19.5772 1.19238C19.0306 0.645803 18.1362 0.645804 17.5896 1.19238L10.3848 8.39722L3.17993 1.19238C2.63336 0.645803 1.73896 0.645803 1.19239 1.19238Z" fill="#2351FF"/>
</svg>
