<svg width="120" height="123" viewBox="0 0 120 123" fill="none" xmlns="http://www.w3.org/2000/svg">
<g filter="url(#filter0_b)">
<path d="M0 61.2565C0 86.911 0.52356 104.607 1.84991 112.182C3.4555 121.082 7.71379 122.548 11.4136 122.548C18.8482 122.548 36.1257 115.637 65.3752 101.012C101.675 82.7923 112.042 73.089 116.405 68.726C119.581 65.5497 120 62.7574 120 61.2915C120 59.8255 119.616 57.0332 116.405 53.8569C112.007 49.459 101.64 39.7557 65.3752 21.5707C36.1606 6.91099 18.8831 0 11.4136 0C7.71379 0 3.4555 1.46597 1.84991 10.3665C0.52356 17.9407 0 35.6021 0 61.2565Z" fill="white" fill-opacity="0.9"/>
</g>
<defs>
<filter id="filter0_b" x="-18" y="-18" width="156" height="158.548" filterUnits="userSpaceOnUse" color-interpolation-filters="sRGB">
<feFlood flood-opacity="0" result="BackgroundImageFix"/>
<feGaussianBlur in="BackgroundImage" stdDeviation="9"/>
<feComposite in2="SourceAlpha" operator="in" result="effect1_backgroundBlur"/>
<feBlend mode="normal" in="SourceGraphic" in2="effect1_backgroundBlur" result="shape"/>
</filter>
</defs>
</svg>
