<svg width="26" height="26" viewBox="0 0 26 26" fill="none" xmlns="http://www.w3.org/2000/svg">
<circle cx="13" cy="13" r="13" fill="white"/>
<g clip-path="url(#clip0)">
<path d="M13 7.0061C12.6432 7.0061 12.3514 7.298 12.3514 7.65475V12.3575H7.64865C7.29189 12.3575 7 12.6493 7 13.0061C7 13.3629 7.29189 13.6548 7.64865 13.6548H12.3514V18.3575C12.3514 18.7142 12.6432 19.0061 13 19.0061C13.3568 19.0061 13.6486 18.7142 13.6486 18.3575V13.6548H18.3514C18.7081 13.6548 19 13.3629 19 13.0061C19 12.6493 18.7081 12.3575 18.3514 12.3575H13.6486V7.65475C13.6486 7.298 13.3568 7.0061 13 7.0061Z" fill="#6081FF"/>
</g>
<defs>
<clipPath id="clip0">
<rect width="12" height="12" fill="white" transform="translate(7 7)"/>
</clipPath>
</defs>
</svg>
