<svg width="24" height="13" viewBox="0 0 24 13" fill="none" xmlns="http://www.w3.org/2000/svg">
<path d="M11.8762 0.00801859C11.6197 0.0507808 11.3631 0.179062 11.1493 0.350111L0.458713 10.613C-0.0971959 11.0834 -0.139958 11.8959 0.287664 12.4091C0.758049 12.965 1.57053 13.0077 2.08368 12.5801C2.12644 12.5373 2.1692 12.4946 2.21197 12.4946L12.0045 3.08688L21.7971 12.4946C22.2675 13.0077 23.0799 13.0505 23.5931 12.5373C24.1062 12.067 24.149 11.2545 23.6359 10.7413C23.5931 10.6986 23.5503 10.6558 23.5076 10.6558L12.817 0.392863C12.646 0.0935274 12.2611 -0.0347436 11.8762 0.00801859Z" fill="#2351FF"/>
</svg>
