<svg width="28" height="50" viewBox="0 0 28 50" fill="none" xmlns="http://www.w3.org/2000/svg">
<path d="M27.7343 25.2578C27.6452 25.7924 27.3779 26.3269 27.0216 26.7723L5.64046 49.0443C4.66049 50.2025 2.96781 50.2916 1.89876 49.4007C0.740612 48.4207 0.651556 46.7281 1.54244 45.659C1.63152 45.5699 1.72062 45.4808 1.72062 45.3917L21.32 24.9906L1.72062 4.58942C0.651567 3.60945 0.562446 1.91678 1.6315 0.847727C2.61147 -0.22133 4.30415 -0.31042 5.37321 0.758637C5.4623 0.847725 5.5514 0.936812 5.5514 1.0259L26.9325 23.2979C27.5561 23.6543 27.8234 24.4561 27.7343 25.2578Z" fill="#2351FF"/>
</svg>
