<svg width="24" height="13" viewBox="0 0 24 13" fill="none" xmlns="http://www.w3.org/2000/svg">
<path d="M11.8762 12.992C11.6197 12.9492 11.3631 12.8209 11.1493 12.6499L0.458713 2.38695C-0.0971959 1.91657 -0.139958 1.10408 0.287664 0.590933C0.758049 0.0350237 1.57053 -0.00772381 2.08368 0.419899C2.12644 0.462661 2.1692 0.505429 2.21197 0.505429L12.0045 9.91312L21.7971 0.505429C22.2675 -0.00771713 23.0799 -0.0504951 23.5931 0.462651C24.1062 0.933036 24.149 1.74552 23.6359 2.25867C23.5931 2.30143 23.5503 2.3442 23.5076 2.3442L12.817 12.6071C12.646 12.9065 12.2611 13.0347 11.8762 12.992Z" fill="#2351FF"/>
</svg>
