<svg width="20" height="16" viewBox="0 0 20 16" fill="none" xmlns="http://www.w3.org/2000/svg">
<path d="M11.7714 0.228571C11.4667 -0.0761905 11.0095 -0.0761905 10.7048 0.228571C10.4 0.533333 10.4 0.990476 10.7048 1.29524L16.6095 7.2381H0.761905C0.342857 7.2381 0 7.58095 0 8C0 8.41905 0.342857 8.7619 0.761905 8.7619H16.6476L10.6667 14.7048C10.3619 15.0095 10.3619 15.4667 10.6667 15.7714C10.819 15.9238 11.0095 16 11.2 16C11.3905 16 11.5809 15.9238 11.7333 15.7714L18.9714 8.53333C19.2762 8.22857 19.2762 7.77143 18.9714 7.46667L11.7714 0.228571Z" fill="#232526"/>
</svg>
