<svg width="27" height="50" viewBox="0 0 27 50" fill="none" xmlns="http://www.w3.org/2000/svg">
<path d="M0.0167054 24.7422C0.105793 24.2076 0.373046 23.6731 0.729398 23.2277L22.1105 0.955653C23.0905 -0.202491 24.7832 -0.291579 25.8522 0.599301C27.0104 1.57927 27.0994 3.27194 26.2085 4.341C26.1195 4.43009 26.0304 4.51917 26.0304 4.60826L6.431 25.0094L26.0304 45.4106C27.0994 46.3905 27.1885 48.0832 26.1195 49.1523C25.1395 50.2213 23.4468 50.3104 22.3778 49.2414C22.2887 49.1523 22.1996 49.0632 22.1996 48.9741L0.818465 26.7021C0.194849 26.3457 -0.0723826 25.5439 0.0167054 24.7422Z" fill="#2351FF"/>
</svg>
