<svg width="20" height="26" viewBox="0 0 20 26" fill="none" xmlns="http://www.w3.org/2000/svg">
<path fill-rule="evenodd" clip-rule="evenodd" d="M11.6406 1.83673H8.3617C8.06606 1.83673 7.69843 2.11702 7.61734 2.40355L7.41406 3.12245H12.5879L12.385 2.40355C12.3035 2.11665 11.9359 1.83673 11.6406 1.83673ZM14.4782 3.12246L14.1321 1.89919C13.828 0.823595 12.747 0 11.6397 0H8.36076C7.25348 0 6.17239 0.823962 5.86802 1.89919L5.5222 3.12246H0.909094C0.406911 3.12246 0 3.53352 0 4.04083C0 4.54814 0.406911 4.9592 0.909094 4.9592H19.091C19.5932 4.9592 20.0001 4.54814 20.0001 4.04083C20.0001 3.53352 19.5932 3.12246 19.091 3.12246H14.4782ZM12.9105 21.1008C12.8988 21.5064 13.2145 21.8451 13.6163 21.8568C14.0174 21.8686 14.3527 21.5497 14.3643 21.1442L14.7279 8.65433C14.7396 8.24877 14.4239 7.91008 14.0225 7.89832C13.621 7.8862 13.2857 8.20543 13.2741 8.61098L12.9105 21.1008ZM5.63741 21.1442C5.64904 21.5497 5.98432 21.8686 6.38577 21.8568C6.78723 21.8451 7.10323 21.5064 7.09123 21.1008L6.72759 8.611C6.71596 8.20545 6.38104 7.88622 5.97959 7.89834C5.57777 7.9101 5.26177 8.24879 5.27377 8.65435L5.63741 21.1442ZM9.27344 21.1225C9.27344 21.5281 9.59926 21.8572 10.0007 21.8572C10.4025 21.8572 10.728 21.5281 10.728 21.1225V8.63269C10.728 8.22713 10.4025 7.89799 10.0007 7.89799C9.59926 7.89799 9.27344 8.22713 9.27344 8.63269V21.1225ZM16.4238 23.2921C16.4111 23.6088 16.1325 23.8777 15.8172 23.8777H4.18083C3.86592 23.8777 3.58701 23.6081 3.57428 23.2921L2.90737 7.12514C2.88664 6.61857 2.463 6.22477 1.96118 6.24571C1.45973 6.26702 1.06991 6.69498 1.09063 7.20155L1.75754 23.3685C1.81136 24.6682 2.89137 25.7144 4.18083 25.7144H15.8172C17.106 25.7144 18.1871 24.6697 18.2405 23.3685L18.9074 7.20155C18.9285 6.69498 18.5387 6.26702 18.0372 6.24571C17.5354 6.22477 17.1118 6.61857 17.0907 7.12514L16.4238 23.2921Z" fill="#2351FF"/>
</svg>
