<svg width="16" height="14" viewBox="0 0 16 14" fill="none" xmlns="http://www.w3.org/2000/svg">
<path d="M2.32258 14C1.05806 14 0 12.937 0 11.6667V4.40741C0 3.13704 1.05806 2.07407 2.32258 2.07407H4.10323L4.67097 0.518519C4.77419 0.207407 5.08387 0 5.39355 0H10.5548C10.8903 0 11.1742 0.207407 11.2774 0.518519L11.8452 2.07407H13.6774C14.9419 2.07407 16 3.13704 16 4.40741V11.6667C16 12.937 14.9419 14 13.6774 14H2.32258ZM2.32258 12.4444H13.6774C14.1161 12.4444 14.4516 12.1074 14.4516 11.6667V4.40741C14.4516 3.96667 14.1161 3.62963 13.6774 3.62963H11.3548C11.0452 3.62963 10.7355 3.42222 10.6323 3.13703L10.0387 1.55556H5.96129L5.36774 3.13703C5.26452 3.44814 4.95484 3.62963 4.64516 3.62963H2.32258C1.88387 3.62963 1.54839 3.96667 1.54839 4.40741V11.6667C1.54839 12.1074 1.88387 12.4444 2.32258 12.4444ZM8 11.6667C6.0129 11.6667 4.3871 10.0333 4.3871 8.03704C4.3871 6.04074 6.0129 4.40741 8 4.40741C9.9871 4.40741 11.6129 6.04074 11.6129 8.03704C11.6129 10.0333 9.9871 11.6667 8 11.6667ZM8 10.1111C9.16129 10.1111 10.0645 9.2037 10.0645 8.03704C10.0645 6.87037 9.16129 5.96296 8 5.96296C6.83871 5.96296 5.93548 6.87037 5.93548 8.03704C5.93548 9.2037 6.83871 10.1111 8 10.1111Z" fill="#2351FF"/>
</svg>
