<svg width="200" height="155" viewBox="0 0 200 155" fill="none" xmlns="http://www.w3.org/2000/svg">
<path opacity="0.8" d="M33.3333 110.417C51.7428 110.417 66.6667 95.4928 66.6667 77.0833C66.6667 58.6738 51.7428 43.75 33.3333 43.75C14.9238 43.75 0 58.6738 0 77.0833C0 95.4928 14.9238 110.417 33.3333 110.417Z" fill="url(#paint0_linear)"/>
<path opacity="0.8" d="M58.3333 122.917C83.6464 122.917 104.167 102.396 104.167 77.0833C104.167 51.7703 83.6464 31.25 58.3333 31.25C33.0203 31.25 12.5 51.7703 12.5 77.0833C12.5 102.396 33.0203 122.917 58.3333 122.917Z" fill="url(#paint1_linear)"/>
<path opacity="0.8" d="M89.584 139.583C124.102 139.583 152.084 111.601 152.084 77.0834C152.084 42.5656 124.102 14.5834 89.584 14.5834C55.0662 14.5834 27.084 42.5656 27.084 77.0834C27.084 111.601 55.0662 139.583 89.584 139.583Z" fill="url(#paint2_linear)"/>
<path opacity="0.8" d="M122.917 154.167C165.489 154.167 200.001 119.655 200.001 77.0833C200.001 34.5114 165.489 0 122.917 0C80.3454 0 45.834 34.5114 45.834 77.0833C45.834 119.655 80.3454 154.167 122.917 154.167Z" fill="url(#paint3_linear)"/>
<defs>
<linearGradient id="paint0_linear" x1="70.6203" y1="77.0833" x2="-6.84671" y2="77.0473" gradientUnits="userSpaceOnUse">
<stop stop-color="white"/>
<stop offset="1" stop-color="#2351FF"/>
</linearGradient>
<linearGradient id="paint1_linear" x1="109.603" y1="77.0833" x2="3.08578" y2="77.0338" gradientUnits="userSpaceOnUse">
<stop stop-color="white"/>
<stop offset="1" stop-color="#2351FF"/>
</linearGradient>
<linearGradient id="paint2_linear" x1="159.497" y1="77.0834" x2="14.2464" y2="77.0158" gradientUnits="userSpaceOnUse">
<stop stop-color="white"/>
<stop offset="1" stop-color="#2351FF"/>
</linearGradient>
<linearGradient id="paint3_linear" x1="209.143" y1="77.0833" x2="30.001" y2="77" gradientUnits="userSpaceOnUse">
<stop stop-color="white"/>
<stop offset="1" stop-color="#2351FF"/>
</linearGradient>
</defs>
</svg>
