<svg width="21" height="20" viewBox="0 0 21 20" fill="none" xmlns="http://www.w3.org/2000/svg">
<path d="M2.78642 12.9572L6.98449 12.9599V15.8743C6.98449 17.2118 7.38277 18.1833 8.16856 18.7591C9.40915 19.6687 11.0749 19.1574 11.1664 19.1278C11.4301 19.0444 11.6104 18.8022 11.6104 18.525V15.0912C11.6104 13.1698 13.6314 11.9023 14.6541 11.3856C14.7967 11.6493 15.0739 11.8296 15.3968 11.8296H19.1643C19.6272 11.8296 20.0039 11.4529 20.0039 10.9873V1.14074C20.0039 0.677872 19.6272 0.301123 19.1643 0.301123H15.3995C15.1304 0.301123 14.8909 0.427603 14.7348 0.62405C14.2289 0.22039 13.5965 -0.000276566 12.9425 -0.000276566H4.53831C3.58566 -0.000276566 2.80256 0.24461 2.21053 0.731693C1.62118 1.21609 1.24981 1.92922 1.14217 2.79574L0.00653839 10.0024V10.0105C0.00384712 10.0266 0.00115585 10.0482 0.00115585 10.0751C0.00115585 11.6332 1.24174 12.9034 2.78642 12.9572ZM10.3456 15.0966V18.011C9.92584 18.0622 9.34456 18.0541 8.91937 17.7392C8.48073 17.4163 8.25737 16.7893 8.25737 15.877V12.3248C8.25737 11.975 7.97481 11.6924 7.62497 11.6924H2.88868C2.01408 11.6924 1.29556 10.99 1.27403 10.1208L2.39621 2.98411L2.40159 2.9599V2.94375C2.54691 1.83503 3.26543 1.2726 4.53831 1.2726H12.9452C13.836 1.2726 14.5599 1.99649 14.5599 2.88724V10.0347C14.1508 10.2123 13.4188 10.5675 12.6869 11.1058C11.1557 12.2306 10.3456 13.6084 10.3456 15.0966ZM18.7337 1.56861V10.5622H15.8274V1.56861H18.7337Z" fill="#2351FF"/>
</svg>
