<svg width="18" height="10" viewBox="0 0 18 10" fill="none" xmlns="http://www.w3.org/2000/svg">
<path d="M8.88179 9.98715C8.68936 9.95508 8.49693 9.85887 8.33657 9.73058L0.318644 2.03338C-0.0982875 1.68059 -0.130359 1.07122 0.190358 0.686362C0.543146 0.26943 1.15251 0.23737 1.53737 0.558087C1.56944 0.590158 1.60151 0.622234 1.63358 0.622234L8.978 7.678L16.3224 0.622234C16.6752 0.237374 17.2846 0.205291 17.6694 0.590151C18.0543 0.94294 18.0864 1.55231 17.7015 1.93717C17.6694 1.96924 17.6374 2.00131 17.6053 2.00131L9.58736 9.69852C9.45908 9.92302 9.17043 10.0192 8.88179 9.98715Z" fill="#A4A8BB"/>
</svg>
