<svg width="38" height="38" viewBox="0 0 38 38" fill="none" xmlns="http://www.w3.org/2000/svg">
<path d="M18.7044 0.680664C28.8543 0.680664 37.1588 8.98514 37.1588 19.1351C37.1588 29.285 28.8543 37.5895 18.7044 37.5895C8.55448 37.5895 0.25 29.285 0.25 19.1351C0.25 8.98514 8.55448 0.680664 18.7044 0.680664Z" fill="white"/>
<g clip-path="url(#clip0)">
<path d="M19 10.8023C21.6717 10.8023 21.9853 10.8142 23.0413 10.8618C24.0179 10.9055 24.5459 11.0683 24.8992 11.2072C25.3676 11.3898 25.7011 11.6042 26.0504 11.9536C26.3998 12.3029 26.6181 12.6364 26.7968 13.1048C26.9317 13.4581 27.0985 13.9861 27.1421 14.9627C27.1898 16.0187 27.2017 16.3323 27.2017 19.004C27.2017 21.6757 27.1898 21.9893 27.1421 23.0453C27.0985 24.0218 26.9357 24.5498 26.7968 24.9031C26.6142 25.3716 26.3998 25.705 26.0504 26.0544C25.7011 26.4037 25.3676 26.6221 24.8992 26.8007C24.5459 26.9357 24.0179 27.1024 23.0413 27.1461C21.9853 27.1937 21.6717 27.2056 19 27.2056C16.3283 27.2056 16.0147 27.1937 14.9587 27.1461C13.9821 27.1024 13.4542 26.9397 13.1008 26.8007C12.6324 26.6181 12.2989 26.4037 11.9496 26.0544C11.6002 25.705 11.3819 25.3716 11.2033 24.9031C11.0683 24.5498 10.9016 24.0218 10.8579 23.0453C10.8102 21.9893 10.7983 21.6757 10.7983 19.004C10.7983 16.3323 10.8102 16.0187 10.8579 14.9627C10.9016 13.9861 11.0643 13.4581 11.2033 13.1048C11.3859 12.6364 11.6002 12.3029 11.9496 11.9536C12.2989 11.6042 12.6324 11.3859 13.1008 11.2072C13.4542 11.0723 13.9821 10.9055 14.9587 10.8618C16.0147 10.8102 16.3323 10.8023 19 10.8023ZM19 9C16.2846 9 15.9432 9.01191 14.8754 9.05955C13.8114 9.10719 13.085 9.27789 12.4498 9.52402C11.7908 9.77809 11.235 10.1235 10.6792 10.6792C10.1235 11.235 9.78206 11.7948 9.52402 12.4498C9.27789 13.085 9.10719 13.8114 9.05955 14.8793C9.01191 15.9432 9 16.2846 9 19C9 21.7154 9.01191 22.0568 9.05955 23.1247C9.10719 24.1886 9.27789 24.915 9.52402 25.5542C9.77809 26.2132 10.1235 26.769 10.6792 27.3247C11.235 27.8805 11.7948 28.2219 12.4498 28.48C13.085 28.7261 13.8114 28.8968 14.8793 28.9444C15.9472 28.9921 16.2846 29.004 19.004 29.004C21.7233 29.004 22.0608 28.9921 23.1286 28.9444C24.1926 28.8968 24.919 28.7261 25.5582 28.48C26.2172 28.2259 26.773 27.8805 27.3287 27.3247C27.8845 26.769 28.2259 26.2092 28.4839 25.5542C28.7301 24.919 28.9008 24.1925 28.9484 23.1247C28.9961 22.0568 29.008 21.7193 29.008 19C29.008 16.2807 28.9961 15.9432 28.9484 14.8753C28.9008 13.8114 28.7301 13.085 28.4839 12.4458C28.2299 11.7868 27.8845 11.231 27.3287 10.6753C26.773 10.1195 26.2132 9.77809 25.5582 9.52005C24.923 9.27392 24.1965 9.10322 23.1286 9.05558C22.0568 9.01191 21.7154 9 19 9Z" fill="#2351FF"/>
<path d="M19.0002 13.8669C16.1658 13.8669 13.8633 16.1655 13.8633 19.0039C13.8633 21.8423 16.1618 24.1409 19.0002 24.1409C21.8387 24.1409 24.1372 21.8423 24.1372 19.0039C24.1372 16.1655 21.8387 13.8669 19.0002 13.8669ZM19.0002 22.3346C17.1582 22.3346 15.6656 20.8419 15.6656 18.9999C15.6656 17.1579 17.1582 15.6653 19.0002 15.6653C20.8422 15.6653 22.3349 17.1579 22.3349 18.9999C22.3349 20.8419 20.8422 22.3346 19.0002 22.3346Z" fill="#2351FF"/>
<path d="M24.3395 14.8594C25.0016 14.8594 25.5384 14.3227 25.5384 13.6606C25.5384 12.9984 25.0016 12.4617 24.3395 12.4617C23.6774 12.4617 23.1406 12.9984 23.1406 13.6606C23.1406 14.3227 23.6774 14.8594 24.3395 14.8594Z" fill="#2351FF"/>
</g>
<defs>
<clipPath id="clip0">
<rect width="20" height="20" fill="white" transform="translate(9 9)"/>
</clipPath>
</defs>
</svg>
