<svg width="20" height="20" viewBox="0 0 20 20" fill="none" xmlns="http://www.w3.org/2000/svg">
<path d="M17.2175 6.34016L13.0194 6.33747V3.42305C13.0194 2.08559 12.6211 1.11411 11.8353 0.538224C10.5948 -0.371356 8.92898 0.139946 8.83749 0.169548C8.57376 0.252971 8.39346 0.495167 8.39346 0.772347V4.20615C8.39346 6.12757 6.37246 7.39506 5.34985 7.91174C5.20723 7.64802 4.93005 7.46772 4.60712 7.46772H0.839615C0.37675 7.46772 0 7.84447 0 8.31002V18.1566C0 18.6195 0.37675 18.9962 0.839615 18.9962H4.60443C4.87353 18.9962 5.11304 18.8698 5.26912 18.6733C5.77504 19.077 6.40745 19.2976 7.06138 19.2976H15.4656C16.4182 19.2976 17.2013 19.0528 17.7934 18.5657C18.3827 18.0813 18.7541 17.3681 18.8617 16.5016L19.9974 9.29495V9.28688C20.0001 9.27073 20.0028 9.2492 20.0028 9.22229C20.0028 7.66417 18.7622 6.39398 17.2175 6.34016ZM9.65826 4.20076V1.28634C10.0781 1.23521 10.6593 1.24328 11.0845 1.55814C11.5232 1.88107 11.7465 2.50808 11.7465 3.42035V6.97256C11.7465 7.3224 12.0291 7.60496 12.3789 7.60496H17.1152C17.9898 7.60496 18.7083 8.30733 18.7299 9.17654L17.6077 16.3132L17.6023 16.3375V16.3536C17.457 17.4623 16.7385 18.0248 15.4656 18.0248H7.05869C6.16794 18.0248 5.44404 17.3009 5.44404 16.4101V9.26266C5.85309 9.08505 6.58506 8.72983 7.31703 8.19161C8.84825 7.06675 9.65826 5.68892 9.65826 4.20076ZM1.27019 17.7287V8.73521H4.17655V17.7287H1.27019Z" fill="#2351FF"/>
</svg>
