<svg width="142" height="59" viewBox="0 0 142 59" fill="none" xmlns="http://www.w3.org/2000/svg">
<path d="M4.17725 2.832C4.53992 3.17333 4.72125 3.60533 4.72125 4.128C4.72125 4.65067 4.53992 5.08267 4.17725 5.424C3.81992 5.76 3.35058 5.928 2.76925 5.928H1.77725V8H1.03325V2.32H2.76925C3.35058 2.32 3.81992 2.49067 4.17725 2.832ZM3.65725 4.928C3.87592 4.72 3.98525 4.45333 3.98525 4.128C3.98525 3.80267 3.87592 3.536 3.65725 3.328C3.44392 3.12 3.14792 3.016 2.76925 3.016H1.77725V5.24H2.76925C3.14792 5.24 3.44392 5.136 3.65725 4.928ZM7.26775 8.08C6.66508 8.08 6.16375 7.88 5.76375 7.48C5.36908 7.07467 5.17175 6.58133 5.17175 6C5.17175 5.41867 5.36908 4.928 5.76375 4.528C6.16375 4.12267 6.66508 3.92 7.26775 3.92C7.86508 3.92 8.36108 4.12267 8.75575 4.528C9.15575 4.928 9.35575 5.41867 9.35575 6C9.35575 6.58133 9.15575 7.07467 8.75575 7.48C8.36108 7.88 7.86508 8.08 7.26775 8.08ZM6.25975 7.024C6.52108 7.30133 6.85708 7.44 7.26775 7.44C7.67842 7.44 8.01175 7.30133 8.26775 7.024C8.52375 6.74667 8.65175 6.40533 8.65175 6C8.65175 5.59467 8.52375 5.25333 8.26775 4.976C8.01175 4.69867 7.67842 4.56 7.26775 4.56C6.85708 4.56 6.52108 4.69867 6.25975 4.976C6.00375 5.25333 5.87575 5.59467 5.87575 6C5.87575 6.40533 6.00375 6.74667 6.25975 7.024ZM13.7197 8L12.7277 5.128L11.7437 8H11.1357L9.77569 4H10.4957L11.4637 6.92L12.4637 4H12.9917L13.9917 6.92L14.9597 4H15.6877L14.3277 8H13.7197ZM18.1736 8.08C17.5603 8.08 17.0616 7.88267 16.6776 7.488C16.2936 7.09333 16.1016 6.59733 16.1016 6C16.1016 5.408 16.2963 4.91467 16.6856 4.52C17.075 4.12 17.5736 3.92 18.1816 3.92C18.7203 3.92 19.171 4.10133 19.5336 4.464C19.9016 4.82133 20.0856 5.30933 20.0856 5.928C20.0856 6.008 20.083 6.07733 20.0776 6.136H16.7976C16.8083 6.50933 16.9416 6.82133 17.1976 7.072C17.459 7.32267 17.787 7.448 18.1816 7.448C18.7416 7.448 19.1576 7.216 19.4296 6.752L19.9736 7.128C19.5843 7.76267 18.9843 8.08 18.1736 8.08ZM16.8456 5.576H19.3816C19.3283 5.256 19.187 5.00267 18.9576 4.816C18.7336 4.624 18.467 4.528 18.1576 4.528C17.843 4.528 17.5603 4.624 17.3096 4.816C17.0643 5.00267 16.9096 5.256 16.8456 5.576ZM21.0621 8V4H21.7501V4.592C21.8301 4.42133 21.9714 4.27467 22.1741 4.152C22.3821 4.024 22.6007 3.96 22.8301 3.96C22.9474 3.96 23.0647 3.97333 23.1821 4L23.0941 4.688C22.9981 4.656 22.8834 4.64 22.7501 4.64C22.5367 4.64 22.3341 4.70933 22.1421 4.848C21.9554 4.98133 21.8247 5.168 21.7501 5.408V8H21.0621ZM25.5486 8.08C24.9353 8.08 24.4366 7.88267 24.0526 7.488C23.6686 7.09333 23.4766 6.59733 23.4766 6C23.4766 5.408 23.6713 4.91467 24.0606 4.52C24.45 4.12 24.9486 3.92 25.5566 3.92C26.0953 3.92 26.546 4.10133 26.9086 4.464C27.2766 4.82133 27.4606 5.30933 27.4606 5.928C27.4606 6.008 27.458 6.07733 27.4526 6.136H24.1726C24.1833 6.50933 24.3166 6.82133 24.5726 7.072C24.834 7.32267 25.162 7.448 25.5566 7.448C26.1166 7.448 26.5326 7.216 26.8046 6.752L27.3486 7.128C26.9593 7.76267 26.3593 8.08 25.5486 8.08ZM24.2206 5.576H26.7566C26.7033 5.256 26.562 5.00267 26.3326 4.816C26.1086 4.624 25.842 4.528 25.5326 4.528C25.218 4.528 24.9353 4.624 24.6846 4.816C24.4393 5.00267 24.2846 5.256 24.2206 5.576ZM30.1411 8.08C29.5544 8.08 29.0717 7.88 28.6931 7.48C28.3144 7.07467 28.1251 6.58133 28.1251 6C28.1251 5.41867 28.3144 4.928 28.6931 4.528C29.0717 4.12267 29.5544 3.92 30.1411 3.92C30.6904 3.92 31.1251 4.09333 31.4451 4.44V2.16H32.1331V8H31.4451V7.56C31.1251 7.90667 30.6904 8.08 30.1411 8.08ZM30.1971 7.448C30.7571 7.448 31.1731 7.22667 31.4451 6.784V5.208C31.1731 4.77067 30.7571 4.552 30.1971 4.552C29.8024 4.552 29.4771 4.69333 29.2211 4.976C28.9651 5.25333 28.8371 5.59467 28.8371 6C28.8371 6.40533 28.9651 6.74933 29.2211 7.032C29.4771 7.30933 29.8024 7.448 30.1971 7.448ZM37.3509 8.08C36.8123 8.08 36.3776 7.90667 36.0469 7.56V8H35.3589V2.16H36.0469V4.44C36.3776 4.09333 36.8123 3.92 37.3509 3.92C37.9376 3.92 38.4203 4.12267 38.7989 4.528C39.1776 4.928 39.3669 5.41867 39.3669 6C39.3669 6.58133 39.1776 7.07467 38.7989 7.48C38.4203 7.88 37.9376 8.08 37.3509 8.08ZM37.2949 7.448C37.6896 7.448 38.0149 7.30933 38.2709 7.032C38.5269 6.74933 38.6549 6.40533 38.6549 6C38.6549 5.59467 38.5269 5.25333 38.2709 4.976C38.0149 4.69333 37.6896 4.552 37.2949 4.552C36.7349 4.552 36.3189 4.77067 36.0469 5.208V6.784C36.3189 7.22667 36.7349 7.448 37.2949 7.448ZM41.393 9.552H40.625L41.441 7.792L39.689 4H40.449L41.825 7.04L43.193 4H43.961L41.393 9.552Z" fill="#A4A8BB"/>
<g clip-path="url(#clip0)">
<path d="M2.1005 17.082C2.1005 16.7503 1.14238 15.829 0.829145 15.829H0.0184255V15.0183H4.82747L9.76549 27.4555H9.87604L15.0904 15.0183H19.402V15.829H18.5913C18.2781 15.829 17.3199 16.7319 17.3199 17.082V29.4454C17.3199 29.7771 18.2781 30.6984 18.5913 30.6984H19.402V31.5091H12.9899V30.6984H13.8007C14.1139 30.6984 15.072 29.7955 15.072 29.4454V17.4505L9.06532 31.8039L3.05863 17.1925V29.4454C3.05863 29.7771 4.01675 30.6984 4.32998 30.6984H5.1407V31.5091H0V30.6984H0.81072C1.12395 30.6984 2.08208 29.7955 2.08208 29.4454V17.082H2.1005Z" fill="#A4A8BB"/>
<path d="M26.3293 24.4708C26.6241 22.8125 26.3478 21.32 24.5236 21.32C22.3863 21.32 21.3545 23.0151 21.3545 25.5394C21.3545 27.9163 22.8653 29.8878 25.3159 29.8878C27.1769 29.8878 27.9692 29.2245 28.7062 27.99H29.3695C28.6694 30.3301 27.2322 31.7857 24.5605 31.7857C21.594 31.7857 19.6777 29.2429 19.6777 26.2212C19.6777 22.7756 21.9625 20.5093 24.7816 20.5093C26.4583 20.5093 27.5823 21.0252 28.5588 22.0017L26.9926 24.4339L26.3293 24.4708Z" fill="#A4A8BB"/>
<path d="M47.8886 18.2798C48.6809 18.2798 49.2705 17.7455 49.2705 16.8979C49.2705 16.0688 48.6809 15.5344 47.8886 15.5344C47.0963 15.5344 46.4883 16.0503 46.4883 16.8979C46.4883 17.7455 47.0963 18.2798 47.8886 18.2798Z" fill="#A4A8BB"/>
<path d="M63.0517 30.6985C62.7384 30.6985 61.8724 29.9246 61.8724 29.5745V23.6231C61.8724 21.7806 60.5642 20.5645 58.9059 20.5645C56.9897 20.5645 55.9763 21.67 54.6865 22.9782L54.2811 20.7856H50.9093V21.5963H51.5726C51.8858 21.5963 52.7518 22.3886 52.7518 22.7203V29.5561C52.7518 29.9246 51.8858 30.6801 51.5726 30.6801H50.9093H50.246C49.9512 30.6801 49.0667 29.9062 49.0667 29.5561V20.7672H45.2342V21.5779H45.8976C46.2108 21.5779 47.0768 22.3702 47.0768 22.7018V29.5561C47.0768 29.9246 46.2108 30.6801 45.8976 30.6801H45.2342H44.6999C44.3682 30.6801 43.0232 29.6667 42.7468 29.2982L36.9981 21.6332L41.0148 17.3216C41.2359 17.0637 42.8021 15.8291 43.1153 15.8291H43.9076V15.0184H37.9378V15.8291H38.7301C39.0433 15.8291 39.983 16.9531 39.725 17.2479L33.8289 23.8074V17.0637C33.8289 16.732 34.787 15.8107 35.1002 15.8107H35.911V15H29.4805V15.8107H30.2912C30.6044 15.8107 31.5625 16.7136 31.5625 17.0637V29.4271C31.5625 29.7588 30.6044 30.6801 30.2912 30.6801H29.4805V31.4908H35.911V30.6801H35.1002C34.787 30.6801 33.8289 29.7772 33.8289 29.4271V25.0603L35.5056 23.2546L41.2175 31.4908H45.2711H50.9277H56.529V30.6801H55.921C55.6078 30.6801 54.7418 29.9062 54.7418 29.5561V24.1022C54.7418 23.3836 56.7133 21.8911 58.2242 21.8911C59.385 21.8911 59.9193 22.6834 59.9193 23.7337V29.5561C59.9193 29.9246 59.0533 30.6801 58.7401 30.6801H58.1321V31.4908H63.6044V30.6801H63.0517V30.6985Z" fill="#A4A8BB"/>
<path d="M65.0414 27.7504C65.0414 28.7453 66.497 30.9011 68.8002 30.9011C70.1268 30.9011 70.8823 30.422 70.8823 29.4271C70.8823 28.2294 69.8136 27.8241 68.8739 27.4187C68.1184 27.1055 67.5104 26.8475 66.6628 26.4606C65.373 25.871 64.3965 25.005 64.3965 23.5309C64.3965 21.6147 65.5573 20.4907 67.6025 20.4907C68.7817 20.4907 69.4451 21.0619 70.2558 21.0619C70.569 21.0619 70.7533 20.9882 70.8454 20.7671H71.435V24.0653H70.7717C70.7717 23.1808 69.5188 21.3014 67.5288 21.3014C66.2759 21.3014 65.6863 21.8542 65.6863 22.7202C65.6863 23.6415 66.3127 23.9916 67.4367 24.4706C68.2474 24.8023 68.8554 25.0787 69.7399 25.4287C70.9007 25.8894 72.2089 26.8107 72.2089 28.5242C72.2089 30.5695 70.8085 31.7671 68.7817 31.7671C67.4183 31.7671 66.626 31.1406 65.7047 31.1406C65.2809 31.1406 65.1704 31.2512 64.894 31.5092H64.3965V27.7504H65.0414Z" fill="#A4A8BB"/>
<path d="M72.8906 26.1291C72.8906 22.96 75.0464 20.491 77.8102 20.5094C80.2424 20.5278 81.5875 22.1861 81.698 24.2682L81.7349 25.042L74.6042 25.6132C74.6042 27.769 76.0967 29.8879 78.5288 29.8879C80.3714 29.8879 81.2005 29.1878 81.8639 27.9717H82.5272C81.827 30.3117 80.4819 31.7489 77.8655 31.7489C74.8437 31.7489 72.8906 29.1509 72.8906 26.1291ZM79.9108 24.3972C80.095 22.8863 79.837 21.3385 77.755 21.3385C75.5439 21.3385 74.6595 23.1811 74.5858 24.8394L79.9108 24.3972Z" fill="#A4A8BB"/>
<path d="M83.5778 22.8124C83.4119 22.4439 82.4722 21.5964 82.1959 21.5964H81.7168V20.7856H87.3919V21.5964H86.7285C86.4337 21.5964 85.7704 22.3518 85.7704 22.7572L88.2579 28.4875L90.7085 22.7756C90.7269 22.3518 90.082 21.5964 89.7872 21.5964H89.1239V20.7856H93.3986V21.5964H92.9011C92.6431 21.5964 91.8877 22.4071 91.6482 22.7756L87.9999 30.9934L85.3282 36.9263L84.3516 36.4657L87.2076 30.6248L83.5778 22.8124Z" fill="#A4A8BB"/>
<path d="M31.8758 40.0219C31.8758 41.3301 32.7786 42.3987 34.2158 42.9515C36.3532 45.2363 38.8959 47.6684 41.1438 49.6584C41.7702 48.6081 42.0098 47.5026 42.0098 46.1575C42.0098 44.6467 41.0148 43.7254 39.4118 43.6885V42.8778H45.2342V43.6885H44.6078C44.2945 43.6885 43.1522 44.9783 43.1337 45.4758C43.0969 46.8761 42.7099 48.6266 41.6597 50.119C42.8573 51.1693 44.055 52.1274 45.0131 52.7907H46.0081V53.6014H44.2208C42.6178 53.6014 41.4754 53.1776 40.1304 51.9247C38.8222 53.1961 37.1455 53.8962 34.7133 53.8962C32.0416 53.8962 29.4805 51.9247 29.4805 49.0319C29.4805 46.7472 30.6413 45.0704 32.1337 44.0202C31.3414 43.0068 30.8071 42.0302 30.8071 40.5746C30.8071 38.2162 32.3548 36.908 34.7686 36.908C36.2795 36.908 37.0718 37.4054 37.7719 37.4054C38.1404 37.4054 38.3615 37.387 38.5458 37.1106H39.246V40.9984H38.5458C38.5458 39.8929 36.9243 37.6634 34.7133 37.6634C32.926 37.6634 31.8758 38.5294 31.8758 40.0219ZM31.1756 47.9448C31.1756 50.3033 33.6815 52.5696 36.0399 52.5696C37.514 52.5696 38.6932 52.1642 39.6145 51.4641C37.2192 49.4004 34.5475 46.8209 32.4838 44.4624C31.6178 45.3468 31.1756 46.2497 31.1756 47.9448Z" fill="#A4A8BB"/>
<path d="M62.9233 42.933C62.9233 41.2379 61.0254 37.7923 57.9115 37.7923C55.0556 37.7923 53.3604 39.3769 53.0656 43.0989C52.9551 44.5545 52.9919 45.8443 53.1025 47.2815C53.3789 50.1558 55.3688 52.5327 58.7223 52.5327C61.5782 52.5327 62.9601 51.3351 64.0288 49.1608H64.8948C63.8261 52.1089 61.5229 53.8778 58.2432 53.8778C53.5078 53.8778 50.4492 49.99 50.4492 45.2731C50.4492 40.5562 53.213 36.7974 57.8378 36.7974C59.6067 36.7974 60.7122 37.516 62.002 37.516C62.5179 37.516 62.7759 37.387 63.0154 37.0922H63.6234V42.933H62.9233Z" fill="#A4A8BB"/>
<path d="M66 48.2212C66 44.7572 68.4874 42.583 71.325 42.583C74.1625 42.583 76.6499 44.7572 76.6499 48.2212C76.6499 51.6852 74.1625 53.8778 71.325 53.8778C68.5059 53.8778 66 51.6852 66 48.2212ZM74.4941 50.0085C74.6231 48.9214 74.6231 47.4473 74.4941 46.3602C74.2914 44.6467 73.3333 43.4859 71.3434 43.4859C69.4271 43.4859 68.4506 44.6467 68.1926 46.3418C68.0268 47.3921 68.0268 48.9214 68.1926 49.99C68.4506 51.6483 69.3719 52.8644 71.3434 52.8644C73.3702 52.8644 74.2914 51.6852 74.4941 50.0085Z" fill="#A4A8BB"/>
<path d="M94.0256 51.6297C94.0256 51.9982 94.8363 52.7536 95.1496 52.7536H95.6471V53.5644H90.3037V52.7721H90.9117C91.2249 52.7721 92.0357 51.9982 92.0357 51.6481V45.6967C92.0357 44.6464 91.5198 43.9278 90.3589 43.9278C88.9586 43.9278 87.2082 45.2913 87.2082 46.0099V51.6481C87.2082 52.0166 88.0189 52.7721 88.3321 52.7721H88.9402V53.5828H83.4862V52.7721H84.0943C84.4075 52.7721 85.2182 51.9982 85.2182 51.6481V45.6967C85.2182 44.6464 84.6655 43.9278 83.5231 43.9278C82.1228 43.9278 80.3723 45.3466 80.3723 46.0836V51.6481C80.3723 52.0166 81.1831 52.7721 81.4963 52.7721H82.1043V53.5828H76.6504V52.7721H77.2584C77.5717 52.7721 78.3824 51.9982 78.3824 51.6481V44.8123C78.3824 44.4806 77.5717 43.6883 77.2584 43.6883H76.6504V42.8776H79.9301L80.3539 44.9412C81.57 43.6515 82.3623 42.6565 84.2417 42.6565C85.6605 42.6565 86.8765 43.4304 87.0792 44.9228C88.3874 43.633 89.235 42.6749 91.0407 42.6749C92.6437 42.6749 93.9703 43.762 93.9703 45.7151V51.6297H94.0256Z" fill="#A4A8BB"/>
<path d="M98.8155 42.8408L99.1841 45.0335C100.105 43.3199 101.285 42.5645 103.053 42.5645C105.651 42.5645 107.236 44.7571 107.236 48.0368C107.236 51.3165 105.43 53.7856 102.814 53.7856C100.934 53.7856 99.9395 53.067 99.1656 51.6851V56.8258C99.1656 57.1943 99.9948 57.9497 100.29 57.9497H100.99V58.7604H95.3516V57.9497H96.0517C96.365 57.9497 97.1757 57.1758 97.1757 56.8258V44.7939C97.1757 44.4623 96.365 43.67 96.0517 43.67H95.3516V42.8593H98.8155V42.8408ZM99.1472 46.7655V49.5661C99.1472 51.2428 100.437 52.6616 102.243 52.6616C104.085 52.6616 104.933 51.5008 105.172 49.8057C105.301 48.7923 105.338 47.613 105.191 46.6181C104.97 44.9229 104.03 43.8358 102.501 43.8358C100.695 43.8542 99.6815 45.0887 99.1472 46.7655Z" fill="#A4A8BB"/>
<path d="M130.489 52.7722C130.176 52.7722 129.31 51.9983 129.31 51.6482V45.6968C129.31 43.8543 128.002 42.6382 126.344 42.6382C124.427 42.6382 123.414 43.7437 122.124 45.0519L121.719 42.8593H118.347V43.67H119.01C119.323 43.67 120.189 44.4623 120.189 44.7939V51.6298C120.189 51.9983 119.323 52.7537 119.01 52.7537H118.347H117.72C117.426 52.7537 116.541 51.9799 116.541 51.6298V45.7889C116.541 43.6884 114.846 42.6013 112.524 42.6013C110.35 42.6013 109.097 43.3568 108.213 44.2596L109.632 46.4154H110.406C109.613 44.5728 110.203 43.412 112.045 43.412C113.962 43.412 114.588 44.278 114.551 45.7889L114.533 47.134L111.769 47.7052C110.258 48.0184 108.305 48.7738 108.305 50.8928C108.305 52.6432 109.558 53.8224 111.032 53.8224C112.617 53.8224 113.759 52.5695 114.607 51.464L114.883 53.6197H118.347H123.948V52.7722H123.34C123.027 52.7722 122.161 51.9983 122.161 51.6482V46.1943C122.161 45.4757 124.133 43.9832 125.643 43.9832C126.804 43.9832 127.339 44.7755 127.339 45.8258V51.6666C127.339 52.0352 126.473 52.7906 126.159 52.7906H125.551V53.6013H131.024V52.7722H130.489ZM114.57 50.4321C114.109 51.2244 112.985 52.3115 111.935 52.3115C110.866 52.3115 110.221 51.5192 110.221 50.598C110.221 49.5293 110.682 48.8107 112.009 48.4606L114.57 47.7973V50.4321Z" fill="#A4A8BB"/>
<path d="M131.816 44.8862C131.65 44.5177 130.711 43.6701 130.434 43.6701H129.955V42.8594H135.63V43.6701H134.967C134.672 43.6701 134.009 44.4255 134.009 44.8309L136.496 50.5612L138.947 44.8493C138.965 44.4255 138.32 43.6701 138.025 43.6701H137.362V42.8594H141.637V43.6701H141.139C140.881 43.6701 140.126 44.4808 139.886 44.8493L136.238 53.0671L133.548 59.0001L132.571 58.5394L135.427 52.6986L131.816 44.8862Z" fill="#A4A8BB"/>
</g>
<defs>
<clipPath id="clip0">
<rect width="141.637" height="44" fill="white" transform="translate(0 15)"/>
</clipPath>
</defs>
</svg>
