<svg width="194" height="45" viewBox="0 0 194 45" fill="none" xmlns="http://www.w3.org/2000/svg">
<g clip-path="url(#clip0)">
<path d="M21.9338 44C34.0476 44 43.8677 34.1799 43.8677 22.0662C43.8677 9.95243 34.0476 0.132324 21.9338 0.132324C9.82011 0.132324 0 9.95243 0 22.0662C0 34.1799 9.82011 44 21.9338 44Z" fill="url(#paint0_linear)"/>
<path d="M37.5002 44C49.614 44 59.4341 34.1799 59.4341 22.0662C59.4341 9.95243 49.614 0.132324 37.5002 0.132324C25.3865 0.132324 15.5664 9.95243 15.5664 22.0662C15.5664 34.1799 25.3865 44 37.5002 44Z" fill="url(#paint1_linear)"/>
</g>
<path fill-rule="evenodd" clip-rule="evenodd" d="M50.35 9.65C50.35 13.35 52.99 16.27 56.69 16.27C58.92 16.27 60.61 15.3 61.82 14.1L63.9 16.34C62.24 18.03 59.82 19.3 56.69 19.3C51.11 19.3 47 15.03 47 9.65C47 4.26 51.11 0 56.69 0C59.82 0 62.24 1.27 63.9 2.95L61.82 5.2C60.61 4 58.92 3.03 56.69 3.03C52.99 3.03 50.35 5.94 50.35 9.65ZM80.28 0.3H83.52V19H80.28V17.13C78.7 18.55 76.58 19.3 74.28 19.3C68.74 19.3 64.66 15.07 64.66 9.65C64.66 4.22 68.74 0 74.28 0C76.58 0 78.7 0.74 80.28 2.17V0.3ZM80.28 6.06C79.19 4.3 77.07 3.03 74.36 3.03C70.66 3.03 68.02 5.94 68.02 9.65C68.02 13.35 70.66 16.27 74.36 16.27C77.07 16.27 79.19 15 80.28 13.24V6.06ZM95.31 14.06C95.31 12.64 94.33 11.85 92.1 11.07L90.63 10.51C87.31 9.27 86.14 7.22 86.14 4.97C86.14 2.17 88.59 0 92.02 0C94.44 0 96.51 1.08 97.68 3.36L95.16 4.82C94.55 3.59 93.5 2.88 92.02 2.88C90.59 2.88 89.35 3.62 89.35 4.93C89.35 6.09 89.91 6.99 92.1 7.78L93.65 8.34C96.85 9.5 98.55 11.18 98.55 13.95C98.55 16.94 95.99 19.3 91.87 19.3C89.08 19.3 86.7 18.06 85.2 15.56L87.76 13.84C88.74 15.48 89.95 16.42 91.95 16.42C93.8 16.42 95.31 15.48 95.31 14.06ZM100.07 9.65C100.07 4.22 104.26 0 109.54 0C114.82 0 118.67 3.77 118.74 10.43H103.43C103.73 13.76 106.33 16.27 109.76 16.27C112.14 16.27 114.06 15.22 115.27 14.02L117.35 16.27C115.72 17.95 113.05 19.3 109.76 19.3C104.18 19.3 100.07 15.03 100.07 9.65ZM103.58 7.63H115.08C114.63 4.56 112.22 2.91 109.35 2.95C106.59 2.95 104.26 4.78 103.58 7.63ZM60.65 25.85H63.9V44.55H60.65V42.46C59.18 44.25 57.03 44.85 54.84 44.85C50.54 44.85 47.56 41.89 47.56 37.26V25.85H50.81V37.07C50.81 39.8 52.62 41.82 55.52 41.82C58.12 41.82 59.9 40.44 60.65 38.08V25.85ZM83.07 33.14V44.55H79.83V33.33C79.83 30.6 78.02 28.58 75.07 28.58C72.43 28.58 70.62 30.04 69.94 32.47V44.55H66.7V25.85H69.94V27.98C71.38 26.18 73.6 25.55 75.79 25.55C80.05 25.55 83.07 28.5 83.07 33.14ZM85.5 25.85H88.74V44.55H85.5V25.85ZM110.21 25.85L100.21 44.85L90.25 25.85H93.91L100.21 38.45L106.55 25.85H110.21ZM127.99 35.98H112.67C112.97 39.31 115.58 41.82 119.01 41.82C121.39 41.82 123.31 40.77 124.52 39.57L126.59 41.82C124.97 43.5 122.29 44.85 119.01 44.85C113.43 44.85 109.31 40.58 109.31 35.2C109.31 29.77 113.5 25.55 118.78 25.55C124.07 25.55 127.91 29.33 127.99 35.98ZM124.33 33.18C123.88 30.11 121.46 28.47 118.6 28.5C115.84 28.5 113.5 30.34 112.82 33.18H124.33ZM138.56 25.66C139.02 25.66 139.47 25.7 139.88 25.77V29.1C139.36 28.95 138.75 28.88 138.07 28.88C136.04 28.88 134.19 29.89 133.36 31.83V44.55H130.11V25.85H133.36V28.05C134.64 26.45 136.45 25.66 138.56 25.66ZM154.38 39.5C154.38 42.49 151.81 44.85 147.7 44.85C144.91 44.85 142.53 43.61 141.02 41.11L143.59 39.39C144.57 41.03 145.78 41.97 147.78 41.97C149.62 41.97 151.13 41.03 151.13 39.61C151.13 38.19 150.15 37.41 147.93 36.62L146.46 36.06C143.14 34.82 141.97 32.77 141.97 30.52C141.97 27.72 144.42 25.55 147.85 25.55C150.27 25.55 152.34 26.63 153.51 28.91L150.98 30.37C150.38 29.14 149.32 28.43 147.85 28.43C146.42 28.43 145.17 29.18 145.17 30.49C145.17 31.64 145.74 32.54 147.93 33.33L149.47 33.89C152.68 35.05 154.38 36.73 154.38 39.5ZM156.42 25.85H159.67V44.55H156.42V25.85ZM192.73 25.85L185.56 36.84V44.55H182.31V36.84L177.05 28.76H171.1V44.55H167.78V28.76H161.75V25.85H178.84L183.94 33.96L189.03 25.85H192.73Z" fill="#2351FF"/>
<defs>
<linearGradient id="paint0_linear" x1="0.000562406" y1="22.0632" x2="43.864" y2="22.0632" gradientUnits="userSpaceOnUse">
<stop stop-color="#2351FF"/>
<stop offset="0.5128" stop-color="#2351FF" stop-opacity="0"/>
</linearGradient>
<linearGradient id="paint1_linear" x1="15.567" y1="22.0632" x2="59.4304" y2="22.0632" gradientUnits="userSpaceOnUse">
<stop stop-color="#2351FF"/>
<stop offset="0.5128" stop-color="#2351FF" stop-opacity="0"/>
</linearGradient>
<clipPath id="clip0">
<rect width="193.17" height="44" fill="white"/>
</clipPath>
</defs>
</svg>
