<svg width="180" height="41" viewBox="0 0 180 41" fill="none" xmlns="http://www.w3.org/2000/svg">
<g clip-path="url(#clip0)">
<path d="M20.4384 41.0004C31.7263 41.0004 40.8769 31.8498 40.8769 20.562C40.8769 9.27413 31.7263 0.123535 20.4384 0.123535C9.1506 0.123535 0 9.27413 0 20.562C0 31.8498 9.1506 41.0004 20.4384 41.0004Z" fill="url(#paint0_linear)"/>
<path d="M34.9423 41.0004C46.2302 41.0004 55.3808 31.8498 55.3808 20.562C55.3808 9.27413 46.2302 0.123535 34.9423 0.123535C23.6545 0.123535 14.5039 9.27413 14.5039 20.562C14.5039 31.8498 23.6545 41.0004 34.9423 41.0004Z" fill="url(#paint1_linear)"/>
<path fill-rule="evenodd" clip-rule="evenodd" d="M52.544 17.8489C55.411 17.8489 57.6305 16.6775 59.1565 15.1207L57.2606 13.0399C56.1508 14.1497 54.594 15.0437 52.5594 15.0437C49.1685 15.0437 46.7485 12.3463 46.7485 8.92447C46.7485 5.50265 49.1685 2.80527 52.5594 2.80527C54.594 2.80527 56.1508 3.69926 57.2606 4.80904L59.1565 2.72821C57.6305 1.17143 55.411 0 52.544 0C47.4267 0 43.6504 3.94588 43.6504 8.92447C43.6658 13.9031 47.4267 17.8489 52.544 17.8489ZM74.1693 15.8452V17.5715H77.1441V0.277445H74.1693V2.00377C72.7204 0.693612 70.7783 0 68.6666 0C63.5802 0 59.8501 3.91505 59.8501 8.92447C59.8501 13.9339 63.5802 17.8489 68.6666 17.8489C70.7783 17.8489 72.7204 17.1553 74.1693 15.8452ZM62.9328 8.92447C62.9328 5.50265 65.3527 2.80527 68.7437 2.80527C71.2407 2.80527 73.1674 3.97671 74.1693 5.61055V12.2538C73.1674 13.8722 71.2407 15.0437 68.7437 15.0437C65.3527 15.0437 62.9328 12.3463 62.9328 8.92447ZM91.6175 12.9012C91.6175 10.3425 90.0607 8.78575 87.1167 7.7068L85.6987 7.18274C83.6949 6.4583 83.1708 5.62596 83.1708 4.54701C83.1708 3.32934 84.3114 2.65114 85.6216 2.65114C86.978 2.65114 87.9336 3.31392 88.4885 4.45453L90.8006 3.09813C89.7524 1.00188 87.8412 0 85.637 0C82.4926 0 80.2423 2.00377 80.2423 4.59325C80.2423 6.67409 81.3212 8.56996 84.3577 9.71057L85.7141 10.2346C87.7487 10.9591 88.6581 11.6835 88.6581 13.0091C88.6581 14.3192 87.2709 15.1824 85.5754 15.1824C83.7411 15.1824 82.6314 14.3192 81.7374 12.7933L79.3791 14.3809C80.7663 16.6929 82.9396 17.8335 85.4983 17.8335C89.2592 17.8489 91.6175 15.6602 91.6175 12.9012ZM101.898 17.8489C104.904 17.8489 107.37 16.6004 108.85 15.0437L106.954 12.9628C105.844 14.0726 104.087 15.0437 101.898 15.0437C98.754 15.0437 96.3649 12.7316 96.0874 9.64891H110.129C110.052 3.49889 106.522 0 101.683 0C96.8427 0 93.0047 3.91505 93.0047 8.92447C93.0047 13.9031 96.781 17.8489 101.898 17.8489ZM101.513 2.72821C104.149 2.69738 106.353 4.20791 106.769 7.04401H96.2261C96.8427 4.4237 98.9852 2.72821 101.513 2.72821ZM57.985 24.97C56.5362 23.6599 54.594 22.9663 52.4824 22.9663C47.3959 22.9663 43.6658 26.8813 43.6658 31.8907C43.6658 36.9002 47.3959 40.8152 52.4824 40.8152C54.594 40.8152 56.5362 40.1216 57.985 38.8114V40.5378H60.9599V23.2437H57.985V24.97ZM57.985 35.2047C56.9831 36.8231 55.041 38.0099 52.5594 38.0099C49.1685 38.0099 46.7485 35.3125 46.7485 31.8907C46.7485 28.4689 49.1685 25.7715 52.5594 25.7715C55.0564 25.7715 56.9831 26.943 57.985 28.5768V35.2047ZM72.6125 25.7715C74.6471 25.7715 76.2039 26.6655 77.3137 27.7753L79.2095 25.6945C77.6836 24.1377 75.4795 22.9663 72.5971 22.9663C67.4798 22.9663 63.7035 26.9121 63.7035 31.8907C63.7035 36.8693 67.4798 40.8152 72.5971 40.8152C75.464 40.8152 77.6836 39.6438 79.2095 38.087L77.3137 36.0062C76.2039 37.1159 74.6471 38.0099 72.6125 38.0099C69.2215 38.0099 66.8016 35.3125 66.8016 31.8907C66.8016 28.4689 69.2215 25.7715 72.6125 25.7715ZM94.9314 24.97C93.4825 23.6599 91.5404 22.9663 89.4288 22.9663C84.3423 22.9663 80.6122 26.8813 80.6122 31.8907C80.6122 36.9002 84.3423 40.8152 89.4288 40.8152C91.5404 40.8152 93.4825 40.1216 94.9314 38.8114V40.5378H97.9062V23.2437H94.9314V24.97ZM94.9314 35.2047C93.9295 36.8231 91.9874 38.0099 89.5058 38.0099C86.1148 38.0099 83.6949 35.3125 83.6949 31.8907C83.6949 28.4689 86.1148 25.7715 89.5058 25.7715C92.0028 25.7715 93.9295 26.943 94.9314 28.5768V35.2047ZM107.046 23.2437H101.174V40.5378H107.046C112.719 40.5378 116.002 36.6689 116.002 31.8907C116.017 27.1125 112.719 23.2437 107.046 23.2437ZM107.124 37.7325H104.149V26.049H107.124C110.823 26.049 112.996 28.6076 112.996 31.8907C112.996 35.1738 110.823 37.7325 107.124 37.7325ZM126.945 22.9663C122.106 22.9663 118.268 26.8813 118.268 31.8907C118.268 36.8693 122.044 40.8152 127.161 40.8152C130.167 40.8152 132.633 39.5667 134.113 38.0099L132.217 35.9291C131.107 37.0389 129.35 38.0099 127.161 38.0099C124.017 38.0099 121.628 35.6979 121.35 32.6152H135.392C135.315 26.4651 131.785 22.9663 126.945 22.9663ZM121.489 30.0257C122.106 27.39 124.263 25.7099 126.776 25.7099C129.412 25.6791 131.616 27.1896 132.032 30.0257H121.489ZM156.879 22.9663C155.121 22.9663 152.732 23.552 151.099 25.8024C150.02 23.999 148.155 22.9663 145.873 22.9663C144.147 22.9663 142.282 23.552 141.003 25.1396V23.2437H138.028V40.5378H141.003V29.0238C141.696 26.9892 143.222 25.7715 145.226 25.7715C147.723 25.7715 149.203 27.6366 149.203 30.1644V40.5378H152.177V29.9949C152.177 29.7945 152.177 29.5479 152.147 29.3012C152.809 27.0817 154.258 25.7715 156.401 25.7715C158.898 25.7715 160.347 27.6366 160.347 30.1644V40.5378H163.322V29.9949C163.306 25.6945 160.825 22.9663 156.879 22.9663ZM176.608 23.2437L171.938 30.7501L167.267 23.2437H163.876L170.443 33.4167V40.5378H173.417V33.4167L179.984 23.2437H176.608Z" fill="white"/>
</g>
<defs>
<linearGradient id="paint0_linear" x1="0.000524062" y1="20.5592" x2="40.8735" y2="20.5592" gradientUnits="userSpaceOnUse">
<stop stop-color="white"/>
<stop offset="0.5128" stop-color="white" stop-opacity="0"/>
</linearGradient>
<linearGradient id="paint1_linear" x1="14.5044" y1="20.5592" x2="55.3774" y2="20.5592" gradientUnits="userSpaceOnUse">
<stop stop-color="white"/>
<stop offset="0.5128" stop-color="white" stop-opacity="0"/>
</linearGradient>
<clipPath id="clip0">
<rect width="180" height="41.0002" fill="white"/>
</clipPath>
</defs>
</svg>
