<svg width="160" height="50" viewBox="0 0 160 50" fill="none" xmlns="http://www.w3.org/2000/svg">
<g clip-path="url(#clip0)">
<path d="M2.37284 2.35196C2.37284 1.9773 1.29049 0.936584 0.936646 0.936584H0.0208144V0.020752H5.45336L11.0316 14.0704H11.1565L17.047 0.020752H21.9175V0.936584H21.0017C20.6478 0.936584 19.5655 1.95649 19.5655 2.35196V16.3184C19.5655 16.6931 20.6478 17.7338 21.0017 17.7338H21.9175V18.6496H14.6741V17.7338H15.59C15.9438 17.7338 17.0261 16.7139 17.0261 16.3184V2.76825L10.2407 18.9826L3.45518 2.47685V16.3184C3.45518 16.6931 4.53753 17.7338 4.89137 17.7338H5.8072V18.6496H0V17.7338H0.915832C1.26968 17.7338 2.35202 16.7139 2.35202 16.3184V2.35196H2.37284Z" fill="white"/>
<path d="M29.7445 10.6987C30.0775 8.82543 29.7653 7.13946 27.7046 7.13946C25.2902 7.13946 24.1246 9.05439 24.1246 11.906C24.1246 14.591 25.8314 16.8181 28.5997 16.8181C30.7019 16.8181 31.5969 16.0688 32.4295 14.6743H33.1788C32.3879 17.3177 30.7644 18.962 27.7463 18.962C24.3952 18.962 22.2305 16.0896 22.2305 12.6761C22.2305 8.7838 24.8115 6.22363 27.996 6.22363C29.8902 6.22363 31.1598 6.80644 32.263 7.9096L30.4938 10.6571L29.7445 10.6987Z" fill="white"/>
<path d="M54.0956 3.7051C54.9906 3.7051 55.6566 3.10148 55.6566 2.14402C55.6566 1.20738 54.9906 0.60376 54.0956 0.60376C53.2005 0.60376 52.5137 1.18656 52.5137 2.14402C52.5137 3.10148 53.2005 3.7051 54.0956 3.7051Z" fill="white"/>
<path d="M71.2265 17.7338C70.8727 17.7338 69.8944 16.8596 69.8944 16.4642V9.74112C69.8944 7.65968 68.4166 6.28594 66.5433 6.28594C64.3786 6.28594 63.2338 7.5348 61.7768 9.01262L61.3189 6.53571H57.5098V7.45154H58.2592C58.613 7.45154 59.5913 8.34656 59.5913 8.72122V16.4433C59.5913 16.8596 58.613 17.713 58.2592 17.713H57.5098H56.7605C56.4275 17.713 55.4284 16.8388 55.4284 16.4433V6.51489H51.099V7.43073H51.8483C52.2022 7.43073 53.1805 8.32574 53.1805 8.7004V16.4433C53.1805 16.8596 52.2022 17.713 51.8483 17.713H51.099H50.4954C50.1207 17.713 48.6013 16.5682 48.2891 16.1519L41.795 7.49317L46.3325 2.62261C46.5823 2.33121 48.3515 0.936646 48.7054 0.936646H49.6004V0.0208144H42.8565V0.936646H43.7515C44.1054 0.936646 45.1669 2.20632 44.8755 2.53935L38.2149 9.94926V2.33121C38.2149 1.95655 39.2973 0.915832 39.6511 0.915832H40.5669V0H33.3027V0.915832H34.2186C34.5724 0.915832 35.6548 1.93574 35.6548 2.33121V16.2976C35.6548 16.6723 34.5724 17.713 34.2186 17.713H33.3027V18.6289H40.5669V17.713H39.6511C39.2973 17.713 38.2149 16.6931 38.2149 16.2976V11.3646L40.109 9.32483L46.5615 18.6289H51.1406H57.5307H63.8582V17.713H63.1713C62.8175 17.713 61.8392 16.8388 61.8392 16.4433V10.2823C61.8392 9.47053 64.0664 7.78457 65.7731 7.78457C67.0844 7.78457 67.6881 8.67959 67.6881 9.86601V16.4433C67.6881 16.8596 66.7098 17.713 66.3559 17.713H65.6691V18.6289H71.8509V17.713H71.2265V17.7338Z" fill="white"/>
<path d="M73.4746 14.4035C73.4746 15.5275 75.1189 17.9628 77.7207 17.9628C79.2194 17.9628 80.0728 17.4216 80.0728 16.2976C80.0728 14.9447 78.8655 14.4868 77.804 14.0288C76.9506 13.675 76.2637 13.3836 75.3063 12.9465C73.8493 12.2804 72.7461 11.3022 72.7461 9.63701C72.7461 7.47231 74.0574 6.20264 76.3678 6.20264C77.6999 6.20264 78.4492 6.84788 79.3651 6.84788C79.7189 6.84788 79.9271 6.76462 80.0311 6.51485H80.6972V10.2406H79.9479C79.9479 9.24153 78.5325 7.11847 76.2845 7.11847C74.8692 7.11847 74.2031 7.7429 74.2031 8.72118C74.2031 9.76189 74.9108 10.1574 76.1805 10.6985C77.0963 11.0732 77.7832 11.3854 78.7823 11.7809C80.0936 12.3012 81.5714 13.342 81.5714 15.2777C81.5714 17.5881 79.9895 18.941 77.6999 18.941C76.1596 18.941 75.2646 18.2333 74.2239 18.2333C73.7452 18.2333 73.6203 18.3582 73.3081 18.6496H72.7461V14.4035H73.4746Z" fill="white"/>
<path d="M82.3418 12.5719C82.3418 8.99182 84.7771 6.20269 87.8992 6.2235C90.6467 6.24432 92.1662 8.11761 92.2911 10.4696L92.3327 11.3438L84.2775 11.9891C84.2775 14.4244 85.9635 16.818 88.711 16.818C90.7925 16.818 91.7291 16.0271 92.4784 14.6533H93.2277C92.4368 17.2967 90.9173 18.9203 87.9617 18.9203C84.5481 18.9203 82.3418 15.9854 82.3418 12.5719ZM90.2721 10.6153C90.4802 8.90856 90.1888 7.16015 87.8368 7.16015C85.3391 7.16015 84.34 9.24159 84.2567 11.1149L90.2721 10.6153Z" fill="white"/>
<path d="M94.4148 8.82547C94.2274 8.40918 93.1659 7.45172 92.8537 7.45172H92.3125V6.53589H98.7233V7.45172H97.974C97.641 7.45172 96.8917 8.30511 96.8917 8.76303L99.7016 15.2363L102.47 8.78384C102.491 8.30511 101.762 7.45172 101.429 7.45172H100.68V6.53589H105.509V7.45172H104.947C104.655 7.45172 103.802 8.36755 103.531 8.78384L99.4102 18.067L96.3921 24.7693L95.289 24.2489L98.5152 17.6508L94.4148 8.82547Z" fill="white"/>
<path d="M36.0086 28.2659C36.0086 29.7437 37.0285 30.951 38.652 31.5754C41.0665 34.1564 43.9389 36.9039 46.4782 39.1518C47.1859 37.9654 47.4565 36.7166 47.4565 35.1971C47.4565 33.4903 46.3325 32.4496 44.5217 32.408V31.4921H51.099V32.408H50.3913C50.0375 32.408 48.747 33.865 48.7262 34.427C48.6845 36.0089 48.2474 37.9862 47.061 39.6722C48.4139 40.8586 49.7669 41.941 50.8492 42.6903H51.9732V43.6061H49.9542C48.1434 43.6061 46.8529 43.1274 45.3334 41.712C43.8556 43.1482 41.9615 43.9391 39.214 43.9391C36.1959 43.9391 33.3027 41.712 33.3027 38.4441C33.3027 35.8632 34.614 33.9691 36.3 32.7826C35.405 31.6378 34.8014 30.5347 34.8014 28.8903C34.8014 26.2261 36.5498 24.7483 39.2764 24.7483C40.9832 24.7483 41.8782 25.3103 42.6692 25.3103C43.0855 25.3103 43.3352 25.2895 43.5434 24.9772H44.3343V29.3691H43.5434C43.5434 28.1202 41.7117 25.6017 39.214 25.6017C37.195 25.6017 36.0086 26.58 36.0086 28.2659ZM35.2177 37.2161C35.2177 39.8803 38.0484 42.4405 40.7126 42.4405C42.3778 42.4405 43.7099 41.9826 44.7506 41.1916C42.0448 38.8604 39.0267 35.9464 36.6955 33.2822C35.7172 34.2813 35.2177 35.3012 35.2177 37.2161Z" fill="white"/>
<path d="M71.0816 31.5545C71.0816 29.6396 68.9377 25.7473 65.4201 25.7473C62.1938 25.7473 60.2789 27.5373 59.9459 31.7418C59.821 33.3861 59.8626 34.8431 59.9875 36.4667C60.2997 39.7137 62.5477 42.3988 66.3359 42.3988C69.5621 42.3988 71.1232 41.0458 72.3304 38.5897H73.3087C72.1015 41.92 69.4997 43.9182 65.7947 43.9182C60.4454 43.9182 56.9902 39.5264 56.9902 34.1979C56.9902 28.8694 60.1124 24.6233 65.3368 24.6233C67.335 24.6233 68.5838 25.4351 70.0408 25.4351C70.6236 25.4351 70.915 25.2894 71.1856 24.9563H71.8725V31.5545H71.0816Z" fill="white"/>
<path d="M74.5566 37.5284C74.5566 33.6153 77.3666 31.1592 80.572 31.1592C83.7774 31.1592 86.5873 33.6153 86.5873 37.5284C86.5873 41.4415 83.7774 43.9184 80.572 43.9184C77.3874 43.9184 74.5566 41.4415 74.5566 37.5284ZM84.1521 39.5474C84.2978 38.3193 84.2978 36.6542 84.1521 35.4261C83.9231 33.4904 82.8408 32.1791 80.5928 32.1791C78.4281 32.1791 77.3249 33.4904 77.0335 35.4053C76.8462 36.5917 76.8462 38.3193 77.0335 39.5266C77.3249 41.3998 78.3657 42.7736 80.5928 42.7736C82.8824 42.7736 83.9231 41.4415 84.1521 39.5474Z" fill="white"/>
<path d="M106.216 41.3788C106.216 41.7951 107.132 42.6485 107.486 42.6485H108.048V43.5643H102.011V42.6693H102.698C103.052 42.6693 103.968 41.7951 103.968 41.3996V34.6766C103.968 33.4901 103.385 32.6784 102.074 32.6784C100.492 32.6784 98.5145 34.2186 98.5145 35.0304V41.3996C98.5145 41.8159 99.4304 42.6693 99.7842 42.6693H100.471V43.5851H94.31V42.6693H94.9969C95.3507 42.6693 96.2666 41.7951 96.2666 41.3996V34.6766C96.2666 33.4901 95.6421 32.6784 94.3517 32.6784C92.7698 32.6784 90.7924 34.2811 90.7924 35.1137V41.3996C90.7924 41.8159 91.7082 42.6693 92.0621 42.6693H92.7489V43.5851H86.5879V42.6693H87.2748C87.6286 42.6693 88.5444 41.7951 88.5444 41.3996V33.6775C88.5444 33.3028 87.6286 32.4078 87.2748 32.4078H86.5879V31.492H90.2928L90.7716 33.8232C92.1453 32.3662 93.0403 31.2422 95.1634 31.2422C96.7661 31.2422 98.1399 32.1164 98.3688 33.8024C99.8467 32.3453 100.804 31.263 102.844 31.263C104.655 31.263 106.153 32.491 106.153 34.6974V41.3788H106.216Z" fill="white"/>
<path d="M111.628 31.4504L112.044 33.9273C113.085 31.9916 114.417 31.1382 116.415 31.1382C119.35 31.1382 121.14 33.6151 121.14 37.3201C121.14 41.025 119.1 43.8141 116.145 43.8141C114.022 43.8141 112.898 43.0024 112.023 41.4413V47.2485C112.023 47.6648 112.96 48.5182 113.293 48.5182H114.084V49.434H107.715V48.5182H108.506C108.86 48.5182 109.775 47.644 109.775 47.2485V33.6567C109.775 33.2821 108.86 32.387 108.506 32.387H107.715V31.4712H111.628V31.4504ZM112.003 35.8839V39.0476C112.003 40.9418 113.46 42.5445 115.499 42.5445C117.581 42.5445 118.538 41.2331 118.809 39.3182C118.955 38.1734 118.996 36.8413 118.83 35.7173C118.58 33.8024 117.518 32.5744 115.791 32.5744C113.751 32.5952 112.606 33.9897 112.003 35.8839Z" fill="white"/>
<path d="M147.407 42.6695C147.053 42.6695 146.075 41.7953 146.075 41.3998V34.6767C146.075 32.5953 144.597 31.2216 142.724 31.2216C140.559 31.2216 139.414 32.4704 137.957 33.9482L137.499 31.4713H133.69V32.3872H134.439C134.793 32.3872 135.772 33.2822 135.772 33.6568V41.379C135.772 41.7953 134.793 42.6486 134.439 42.6486H133.69H132.982C132.649 42.6486 131.65 41.7744 131.65 41.379V34.7808C131.65 32.408 129.735 31.1799 127.113 31.1799C124.657 31.1799 123.241 32.0333 122.242 33.0532L123.845 35.4885H124.719C123.824 33.4071 124.49 32.0958 126.572 32.0958C128.736 32.0958 129.444 33.074 129.402 34.7808L129.382 36.3003L126.259 36.9455C124.553 37.2994 122.346 38.1527 122.346 40.5464C122.346 42.5238 123.762 43.8559 125.427 43.8559C127.217 43.8559 128.507 42.4405 129.465 41.1916L129.777 43.6269H133.69H140.018V42.6695H139.331C138.977 42.6695 137.999 41.7953 137.999 41.3998V35.2387C137.999 34.427 140.226 32.741 141.933 32.741C143.244 32.741 143.848 33.636 143.848 34.8224V41.4206C143.848 41.8369 142.869 42.6903 142.515 42.6903H141.829V43.6061H148.01V42.6695H147.407ZM129.423 40.026C128.903 40.9211 127.633 42.1491 126.447 42.1491C125.239 42.1491 124.511 41.2541 124.511 40.2134C124.511 39.0061 125.031 38.1944 126.53 37.7989L129.423 37.0496V40.026Z" fill="white"/>
<path d="M148.905 33.761C148.718 33.3447 147.656 32.3873 147.344 32.3873H146.803V31.4714H153.214V32.3873H152.464C152.131 32.3873 151.382 33.2407 151.382 33.6986L154.192 40.1718L156.96 33.7194C156.981 33.2407 156.252 32.3873 155.919 32.3873H155.17V31.4714H159.999V32.3873H159.437C159.146 32.3873 158.292 33.3031 158.022 33.7194L153.9 43.0026L150.862 49.7048L149.758 49.1845L152.985 42.5863L148.905 33.761Z" fill="white"/>
</g>
<defs>
<clipPath id="clip0">
<rect width="160" height="49.7047" fill="white"/>
</clipPath>
</defs>
</svg>
