<svg width="180" height="41" viewBox="0 0 180 41" fill="none" xmlns="http://www.w3.org/2000/svg">
<g clip-path="url(#clip0)">
<path d="M20.4384 41.0004C31.7263 41.0004 40.8769 31.8498 40.8769 20.562C40.8769 9.27413 31.7263 0.123535 20.4384 0.123535C9.1506 0.123535 0 9.27413 0 20.562C0 31.8498 9.1506 41.0004 20.4384 41.0004Z" fill="url(#paint0_linear)"/>
<path d="M34.9423 41.0004C46.2302 41.0004 55.3808 31.8498 55.3808 20.562C55.3808 9.27413 46.2302 0.123535 34.9423 0.123535C23.6545 0.123535 14.5039 9.27413 14.5039 20.562C14.5039 31.8498 23.6545 41.0004 34.9423 41.0004Z" fill="url(#paint1_linear)"/>
<path fill-rule="evenodd" clip-rule="evenodd" d="M47.1263 8.82163C47.1263 12.204 49.5901 14.8734 53.043 14.8734C55.1241 14.8734 56.7013 13.9866 57.8305 12.8896L59.7716 14.9373C58.2225 16.4823 55.964 17.6433 53.043 17.6433C47.8356 17.6433 44 13.7398 44 8.82163C44 3.89431 47.8356 0 53.043 0C55.964 0 58.2225 1.16098 59.7716 2.69677L57.8305 4.75362C56.7013 3.65663 55.1241 2.7699 53.043 2.7699C49.5901 2.7699 47.1263 5.4301 47.1263 8.82163ZM75.058 0.274247H78.0817V17.369H75.058V15.6595C73.5835 16.9576 71.605 17.6433 69.4586 17.6433C64.2885 17.6433 60.4809 13.7764 60.4809 8.82163C60.4809 3.85775 64.2885 0 69.4586 0C71.605 0 73.5835 0.676477 75.058 1.98372V0.274247ZM75.058 5.5398C74.0408 3.93088 72.0623 2.7699 69.5332 2.7699C66.0803 2.7699 63.6166 5.4301 63.6166 8.82163C63.6166 12.204 66.0803 14.8734 69.5332 14.8734C72.0623 14.8734 74.0408 13.7124 75.058 12.1035V5.5398ZM89.0845 12.8531C89.0845 11.555 88.1699 10.8328 86.0888 10.1197L84.7169 9.6078C81.6186 8.47425 80.5267 6.60022 80.5267 4.54337C80.5267 1.98372 82.8131 0 86.0141 0C88.2726 0 90.2043 0.987291 91.2962 3.07157L88.9445 4.40624C88.3752 3.28183 87.3953 2.63278 86.0141 2.63278C84.6796 2.63278 83.5224 3.30925 83.5224 4.5068C83.5224 5.56722 84.045 6.38997 86.0888 7.11215L87.5353 7.62408C90.5216 8.6845 92.1081 10.2203 92.1081 12.7525C92.1081 15.4858 89.7191 17.6433 85.8742 17.6433C83.2704 17.6433 81.0493 16.5097 79.6495 14.2243L82.0386 12.652C82.9531 14.1512 84.0823 15.0105 85.9488 15.0105C87.6753 15.0105 89.0845 14.1512 89.0845 12.8531ZM93.5267 8.82163C93.5267 3.85775 97.4369 0 102.364 0C107.292 0 110.885 3.44638 110.95 9.53467H96.6623C96.9423 12.5788 99.3687 14.8734 102.57 14.8734C104.791 14.8734 106.583 13.9135 107.712 12.8165L109.653 14.8734C108.132 16.4091 105.64 17.6433 102.57 17.6433C97.3622 17.6433 93.5267 13.7398 93.5267 8.82163ZM96.8023 6.97503H107.534C107.115 4.16856 104.865 2.6602 102.187 2.69677C99.6113 2.69677 97.4369 4.36968 96.8023 6.97503ZM56.7386 23.631H59.7716V40.7258H56.7386V38.8152C55.3668 40.4515 53.3603 41 51.3165 41C47.3036 41 44.5226 38.2941 44.5226 34.0615V23.631H47.5556V33.8878C47.5556 36.3835 49.2448 38.2301 51.9511 38.2301C54.3775 38.2301 56.0387 36.9686 56.7386 34.8111V23.631ZM77.6617 30.2952V40.7258H74.638V30.4689C74.638 27.9732 72.9489 26.1266 70.1958 26.1266C67.7321 26.1266 66.043 27.4613 65.4084 29.6827V40.7258H62.3847V23.631H65.4084V25.5782C66.7522 23.9327 68.824 23.3567 70.8678 23.3567C74.8433 23.3567 77.6617 26.0535 77.6617 30.2952ZM79.9295 23.631H82.9531V40.7258H79.9295V23.631ZM102.99 23.631L93.6573 41L84.3623 23.631H87.7779L93.6573 35.1494L99.574 23.631H102.99ZM119.583 32.8914H105.285C105.565 35.9356 108.001 38.2301 111.202 38.2301C113.423 38.2301 115.215 37.2702 116.344 36.1732L118.276 38.2301C116.764 39.7659 114.263 41 111.202 41C105.995 41 102.15 37.0965 102.15 32.1784C102.15 27.2145 106.06 23.3567 110.987 23.3567C115.924 23.3567 119.508 26.8123 119.583 32.8914ZM116.167 30.3318C115.747 27.5253 113.489 26.0261 110.819 26.0535C108.244 26.0535 106.06 27.7356 105.425 30.3318H116.167ZM129.447 23.4573C129.876 23.4573 130.296 23.4939 130.679 23.5579V26.602C130.193 26.4649 129.624 26.4009 128.989 26.4009C127.095 26.4009 125.369 27.3242 124.594 29.0977V40.7258H121.561V23.631H124.594V25.6421C125.789 24.1795 127.478 23.4573 129.447 23.4573ZM144.211 36.1093C144.211 38.8426 141.812 41 137.977 41C135.373 41 133.152 39.8664 131.743 37.5811L134.141 36.0087C135.056 37.5079 136.185 38.3672 138.051 38.3672C139.768 38.3672 141.178 37.5079 141.178 36.2098C141.178 34.9117 140.263 34.1987 138.191 33.4765L136.819 32.9645C133.721 31.831 132.629 29.957 132.629 27.9001C132.629 25.3405 134.916 23.3567 138.117 23.3567C140.375 23.3567 142.307 24.344 143.399 26.4283L141.038 27.763C140.478 26.6386 139.488 25.9895 138.117 25.9895C136.782 25.9895 135.615 26.6751 135.615 27.8727C135.615 28.924 136.147 29.7467 138.191 30.4689L139.628 30.9808C142.624 32.0412 144.211 33.577 144.211 36.1093ZM146.114 23.631H149.147V40.7258H146.114V23.631ZM180 23.631L173.309 33.6776V40.7258H170.276V33.6776L165.367 26.2912H159.814V40.7258H156.716V26.2912H151.088V23.631H167.037L171.797 31.0448L176.547 23.631H180Z" fill="white"/>
</g>
<defs>
<linearGradient id="paint0_linear" x1="0.000524062" y1="20.5592" x2="40.8735" y2="20.5592" gradientUnits="userSpaceOnUse">
<stop stop-color="white"/>
<stop offset="0.5128" stop-color="white" stop-opacity="0"/>
</linearGradient>
<linearGradient id="paint1_linear" x1="14.5044" y1="20.5592" x2="55.3774" y2="20.5592" gradientUnits="userSpaceOnUse">
<stop stop-color="white"/>
<stop offset="0.5128" stop-color="white" stop-opacity="0"/>
</linearGradient>
<clipPath id="clip0">
<rect width="180" height="41.0002" fill="white"/>
</clipPath>
</defs>
</svg>
