<svg width="29" height="38" viewBox="0 0 29 38" fill="none" xmlns="http://www.w3.org/2000/svg">
<path d="M2 1.33337C1.44772 1.33337 1 1.78109 1 2.33337V35.9928C1 36.5451 1.44772 36.9928 2 36.9928H26.9731C27.5254 36.9928 27.9731 36.5451 27.9731 35.9928V9.98761C27.9731 9.72509 27.8699 9.4731 27.6857 9.28603L20.1497 1.63179C19.9618 1.44088 19.7051 1.33337 19.4372 1.33337H2Z" stroke="#2351FF" stroke-width="2" stroke-miterlimit="10" stroke-linecap="round" stroke-linejoin="round"/>
<path d="M8.4458 23.7499V25.9999H7.15381V19.6014H9.3335C9.96631 19.6014 10.4702 19.7977 10.8452 20.1903C11.2231 20.5829 11.4121 21.0927 11.4121 21.7196C11.4121 22.3466 11.2261 22.8417 10.854 23.205C10.4819 23.5682 9.96631 23.7499 9.30713 23.7499H8.4458ZM8.4458 22.6732H9.3335C9.57959 22.6732 9.77002 22.5927 9.90479 22.4315C10.0396 22.2704 10.1069 22.036 10.1069 21.7284C10.1069 21.4091 10.0381 21.1556 9.90039 20.9681C9.7627 20.7777 9.57812 20.681 9.34668 20.6781H8.4458V22.6732ZM12.5478 25.9999V19.6014H14.2397C14.9868 19.6014 15.5815 19.8387 16.0239 20.3134C16.4692 20.788 16.6963 21.4384 16.7051 22.2645V23.3016C16.7051 24.1425 16.4824 24.8031 16.0371 25.2836C15.5947 25.7611 14.9839 25.9999 14.2046 25.9999H12.5478ZM13.8398 20.6781V24.9276H14.2265C14.6572 24.9276 14.9604 24.8148 15.1362 24.5892C15.312 24.3607 15.4043 23.9681 15.4131 23.4115V22.2997C15.4131 21.702 15.3296 21.286 15.1626 21.0516C14.9956 20.8143 14.7114 20.6898 14.31 20.6781H13.8398ZM21.207 23.3895H19.1987V25.9999H17.9067V19.6014H21.4487V20.6781H19.1987V22.3173H21.207V23.3895Z" fill="#2351FF"/>
<path d="M18.2852 4.50488V11.0196H24.7999" stroke="#2351FF" stroke-width="2" stroke-linecap="round" stroke-linejoin="round"/>
</svg>
