<svg width="16" height="14" viewBox="0 0 16 14" fill="none" xmlns="http://www.w3.org/2000/svg">
<g clip-path="url(#clip0)">
<path d="M2.32258 13.9416C1.05806 13.9416 0 12.8835 0 11.619V4.3932C0 3.12868 1.05806 2.07062 2.32258 2.07062H4.10323L4.67097 0.522233C4.77419 0.212555 5.08387 0.00610352 5.39355 0.00610352H10.5548C10.8903 0.00610352 11.1742 0.212555 11.2774 0.522233L11.8452 2.07062H13.6774C14.9419 2.07062 16 3.12868 16 4.3932V11.619C16 12.8835 14.9419 13.9416 13.6774 13.9416H2.32258ZM2.32258 12.3932H13.6774C14.1161 12.3932 14.4516 12.0577 14.4516 11.619V4.3932C14.4516 3.95449 14.1161 3.61901 13.6774 3.61901H11.3548C11.0452 3.61901 10.7355 3.41255 10.6323 3.12868L10.0387 1.55449H5.96129L5.36774 3.12868C5.26452 3.43836 4.95484 3.61901 4.64516 3.61901H2.32258C1.88387 3.61901 1.54839 3.95449 1.54839 4.3932V11.619C1.54839 12.0577 1.88387 12.3932 2.32258 12.3932ZM8 11.619C6.0129 11.619 4.3871 9.9932 4.3871 8.0061C4.3871 6.01901 6.0129 4.3932 8 4.3932C9.9871 4.3932 11.6129 6.01901 11.6129 8.0061C11.6129 9.9932 9.9871 11.619 8 11.619ZM8 10.0706C9.16129 10.0706 10.0645 9.16739 10.0645 8.0061C10.0645 6.84481 9.16129 5.94159 8 5.94159C6.83871 5.94159 5.93548 6.84481 5.93548 8.0061C5.93548 9.16739 6.83871 10.0706 8 10.0706Z" fill="#2351FF"/>
</g>
<defs>
<clipPath id="clip0">
<rect width="16" height="13.9355" fill="white"/>
</clipPath>
</defs>
</svg>
