<svg width="24" height="29" viewBox="0 0 24 29" fill="none" xmlns="http://www.w3.org/2000/svg">
<g clip-path="url(#clip0)">
<path d="M11.2771 2.34343C8.16867 2.34343 5.20482 3.46391 2.89157 5.52416L2.85542 0.319336H0.686747L0.722892 9.24705L9.54217 9.17476V7.00608L4.40964 7.04223C6.3253 5.41572 8.74699 4.51211 11.241 4.51211C17.1325 4.51211 21.9398 9.31934 21.9398 15.2109C21.9398 21.1025 17.1687 25.9097 11.241 25.9097C7.3012 25.9097 3.68675 23.7049 1.87952 20.1989L0 21.1748C3.21687 27.3916 10.8795 29.8495 17.0964 26.6326C21.3614 24.4278 24.0361 19.982 23.9639 15.1748C24.0361 8.16271 18.3253 2.41572 11.2771 2.34343Z" fill="white"/>
</g>
<defs>
<clipPath id="clip0">
<rect width="24" height="27.759" fill="white" transform="translate(0 0.319336)"/>
</clipPath>
</defs>
</svg>
