<svg width="22" height="22" viewBox="0 0 22 22" fill="none" xmlns="http://www.w3.org/2000/svg">
<path fill-rule="evenodd" clip-rule="evenodd" d="M15.5727 8.92497C15.5727 12.5875 12.5876 15.5727 8.92503 15.5727C5.26245 15.5727 2.27734 12.5875 2.27734 8.92497C2.27734 5.26239 5.26245 2.27728 8.92503 2.27728C12.5876 2.27728 15.5727 5.25533 15.5727 8.92497ZM20.816 19.9198L14.9517 14.0554C16.1725 12.6229 16.8429 10.8022 16.8429 8.925C16.8429 4.55672 13.2862 1 8.925 1C4.55672 1 1 4.55672 1 8.925C1 13.2933 4.55672 16.85 8.925 16.85C10.8022 16.85 12.6158 16.1796 14.0484 14.9587L19.9269 20.8232C20.0539 20.9501 20.2091 21.0066 20.3714 21.0066C20.5338 21.0066 20.6961 20.9431 20.816 20.8232C20.936 20.7031 20.9995 20.5409 20.9995 20.3714C21.0066 20.2021 20.936 20.0398 20.816 19.9198Z" fill="#A4A8BB"/>
<path d="M14.9517 14.0554L14.7995 13.9257L14.6797 14.0663L14.8103 14.1969L14.9517 14.0554ZM14.0484 14.9587L14.1896 14.8171L14.059 14.6869L13.9187 14.8065L14.0484 14.9587ZM19.9269 20.8232L20.0682 20.6817L20.0681 20.6816L19.9269 20.8232ZM20.816 20.8232L20.9574 20.9646L20.9575 20.9645L20.816 20.8232ZM20.9995 20.3714L20.7995 20.3631V20.3714H20.9995ZM15.3727 8.92497C15.3727 12.4771 12.4772 15.3727 8.92503 15.3727V15.7727C12.6981 15.7727 15.7727 12.698 15.7727 8.92497H15.3727ZM8.92503 15.3727C5.37291 15.3727 2.47734 12.4771 2.47734 8.92497H2.07734C2.07734 12.698 5.15199 15.7727 8.92503 15.7727V15.3727ZM2.47734 8.92497C2.47734 5.37285 5.37291 2.47728 8.92503 2.47728V2.07728C5.15199 2.07728 2.07734 5.15193 2.07734 8.92497H2.47734ZM8.92503 2.47728C12.4773 2.47728 15.3727 5.36593 15.3727 8.92497H15.7727C15.7727 5.14474 12.6979 2.07728 8.92503 2.07728V2.47728ZM20.9575 19.7784L15.0931 13.914L14.8103 14.1969L20.6746 20.0612L20.9575 19.7784ZM15.1039 14.1852C16.3556 12.7164 17.0429 10.8498 17.0429 8.925H16.6429C16.6429 10.7546 15.9895 12.5293 14.7995 13.9257L15.1039 14.1852ZM17.0429 8.925C17.0429 4.44638 13.3968 0.8 8.925 0.8V1.2C13.1757 1.2 16.6429 4.66707 16.6429 8.925H17.0429ZM8.925 0.8C4.44627 0.8 0.8 4.44627 0.8 8.925H1.2C1.2 4.66718 4.66718 1.2 8.925 1.2V0.8ZM0.8 8.925C0.8 13.4037 4.44627 17.05 8.925 17.05V16.65C4.66718 16.65 1.2 13.1828 1.2 8.925H0.8ZM8.925 17.05C10.85 17.05 12.7095 16.3625 14.1781 15.111L13.9187 14.8065C12.5221 15.9967 10.7544 16.65 8.925 16.65V17.05ZM13.9071 15.1003L19.7856 20.9648L20.0681 20.6816L14.1896 14.8171L13.9071 15.1003ZM19.7855 20.9646C19.9524 21.1315 20.1597 21.2066 20.3714 21.2066V20.8066C20.2586 20.8066 20.1553 20.7687 20.0682 20.6817L19.7855 20.9646ZM20.3714 21.2066C20.585 21.2066 20.7987 21.1233 20.9574 20.9646L20.6747 20.6817C20.5934 20.7629 20.4825 20.8066 20.3714 20.8066V21.2066ZM20.9575 20.9645C21.117 20.805 21.1995 20.591 21.1995 20.3714H20.7995C20.7995 20.4908 20.755 20.6013 20.6746 20.6818L20.9575 20.9645ZM21.1993 20.3798C21.209 20.1487 21.1127 19.9336 20.9575 19.7784L20.6746 20.0612C20.7593 20.1459 20.8042 20.2555 20.7997 20.3631L21.1993 20.3798Z" fill="#A4A8BB"/>
</svg>
