<svg width="38" height="38" viewBox="0 0 38 38" fill="none" xmlns="http://www.w3.org/2000/svg">
<path d="M18.7962 0.680664C28.9461 0.680664 37.2506 8.98514 37.2506 19.1351C37.2506 29.285 28.9461 37.5895 18.7962 37.5895C8.64628 37.5895 0.341797 29.285 0.341797 19.1351C0.341797 8.98514 8.64628 0.680664 18.7962 0.680664Z" fill="white"/>
<g clip-path="url(#clip0)">
<path fill-rule="evenodd" clip-rule="evenodd" d="M28.343 13.4168C27.6773 13.7136 26.9667 13.9115 26.22 13.9925C26.9847 13.5337 27.5694 12.8141 27.8392 11.9505C27.1286 12.3733 26.337 12.6792 25.4914 12.8501C24.8167 12.1304 23.8632 11.6807 22.7928 11.6807C20.7508 11.6807 19.1046 13.3358 19.1046 15.3688C19.1046 15.6567 19.1406 15.9445 19.2035 16.2054C16.1361 16.0615 13.4194 14.5862 11.5934 12.3553C11.2785 12.9041 11.0896 13.5337 11.0896 14.2084C11.0896 15.4858 11.7463 16.6192 12.7358 17.2759C12.1331 17.2579 11.5664 17.087 11.0626 16.8171C11.0626 16.8351 11.0626 16.8441 11.0626 16.8621C11.0626 18.6522 12.331 20.1454 14.0221 20.4783C13.7163 20.5592 13.3835 20.6042 13.0506 20.6042C12.8077 20.6042 12.5829 20.5772 12.358 20.5412C12.8257 22.0075 14.1931 23.078 15.8032 23.105C14.5349 24.0945 12.9517 24.6882 11.2155 24.6882C10.9187 24.6882 10.6218 24.6702 10.334 24.6342C11.9622 25.6777 13.9052 26.2894 15.9922 26.2894C22.7838 26.2894 26.4989 20.6672 26.4989 15.7826C26.4989 15.6207 26.4989 15.4588 26.4899 15.3059C27.2185 14.8021 27.8392 14.1454 28.343 13.4168Z" fill="#2351FF"/>
</g>
<defs>
<clipPath id="clip0">
<rect width="18" height="14.6177" fill="white" transform="translate(10.3418 11.6807)"/>
</clipPath>
</defs>
</svg>
