<svg width="37" height="38" viewBox="0 0 37 38" fill="none" xmlns="http://www.w3.org/2000/svg">
<path d="M18.4544 0.680664C28.6043 0.680664 36.9088 8.98514 36.9088 19.1351C36.9088 29.285 28.6043 37.5895 18.4544 37.5895C8.30448 37.5895 0 29.285 0 19.1351C0 8.98514 8.30448 0.680664 18.4544 0.680664Z" fill="white"/>
<path d="M27.5789 13.3122C28 15.207 28 19.1017 28 19.1017C28 19.1017 28 22.9965 27.5789 24.8912C27.3684 25.9438 26.6316 26.7859 25.6842 26.9965C23.8947 27.5228 18 27.5228 18 27.5228C18 27.5228 12.1053 27.5228 10.4211 26.9965C9.47368 26.6807 8.73684 25.9438 8.52632 24.8912C8 22.9965 8 19.1017 8 19.1017C8 19.1017 8 15.207 8.42105 13.3122C8.63158 12.2596 9.36842 11.4175 10.3158 11.207C12.1053 10.6807 18 10.6807 18 10.6807C18 10.6807 23.8947 10.6807 25.5789 11.207C26.5263 11.4175 27.2632 12.2596 27.5789 13.3122ZM16 22.7859L22 19.1017L16 15.4175V22.7859Z" fill="#2351FF"/>
</svg>
