<svg width="194" height="44" viewBox="0 0 194 44" fill="none" xmlns="http://www.w3.org/2000/svg">
<g clip-path="url(#clip0)">
<path d="M21.9338 44C34.0476 44 43.8677 34.1799 43.8677 22.0662C43.8677 9.95243 34.0476 0.132324 21.9338 0.132324C9.82011 0.132324 0 9.95243 0 22.0662C0 34.1799 9.82011 44 21.9338 44Z" fill="url(#paint0_linear)"/>
<path d="M37.4993 44C49.613 44 59.4331 34.1799 59.4331 22.0662C59.4331 9.95243 49.613 0.132324 37.4993 0.132324C25.3855 0.132324 15.5654 9.95243 15.5654 22.0662C15.5654 34.1799 25.3855 44 37.4993 44Z" fill="url(#paint1_linear)"/>
<path fill-rule="evenodd" clip-rule="evenodd" d="M56.3891 19.1549C59.4658 19.1549 61.8477 17.8977 63.4853 16.2271L61.4507 13.994C60.2598 15.185 58.5891 16.1444 56.4056 16.1444C52.7665 16.1444 50.1695 13.2496 50.1695 9.57744C50.1695 5.90526 52.7665 3.01053 56.4056 3.01053C58.5891 3.01053 60.2598 3.96993 61.4507 5.1609L63.4853 2.92782C61.8477 1.25714 59.4658 0 56.3891 0C50.8974 0 46.8447 4.23459 46.8447 9.57744C46.8613 14.9203 50.8974 19.1549 56.3891 19.1549ZM79.5966 17.0045V18.8571H82.7891V0.297744H79.5966V2.15038C78.0417 0.744361 75.9575 0 73.6913 0C68.2327 0 64.2297 4.2015 64.2297 9.57744C64.2297 14.9534 68.2327 19.1549 73.6913 19.1549C75.9575 19.1549 78.0417 18.4105 79.5966 17.0045ZM67.538 9.57744C67.538 5.90526 70.1349 3.01053 73.774 3.01053C76.4537 3.01053 78.5214 4.26767 79.5966 6.02105V13.1504C78.5214 14.8872 76.4537 16.1444 73.774 16.1444C70.1349 16.1444 67.538 13.2496 67.538 9.57744ZM98.3214 13.8451C98.3214 11.0992 96.6507 9.42857 93.4913 8.27068L91.9695 7.70827C89.8192 6.93083 89.2567 6.03759 89.2567 4.8797C89.2567 3.57293 90.4808 2.84511 91.8868 2.84511C93.3425 2.84511 94.368 3.55639 94.9635 4.78045L97.4447 3.32481C96.3199 1.07519 94.2688 0 91.9034 0C88.5289 0 86.1139 2.15038 86.1139 4.92932C86.1139 7.16241 87.2718 9.19699 90.5304 10.4211L91.9861 10.9835C94.1695 11.7609 95.1455 12.5383 95.1455 13.9609C95.1455 15.3669 93.6567 16.2932 91.8372 16.2932C89.8688 16.2932 88.6778 15.3669 87.7184 13.7293L85.1876 15.4331C86.6763 17.9143 89.0086 19.1383 91.7545 19.1383C95.7906 19.1549 98.3214 16.806 98.3214 13.8451ZM109.354 19.1549C112.58 19.1549 115.227 17.815 116.815 16.1444L114.78 13.9113C113.589 15.1023 111.703 16.1444 109.354 16.1444C105.98 16.1444 103.416 13.6632 103.118 10.3549H118.188C118.105 3.75489 114.317 0 109.123 0C103.929 0 99.8101 4.2015 99.8101 9.57744C99.8101 14.9203 103.863 19.1549 109.354 19.1549ZM108.941 2.92782C111.77 2.89474 114.135 4.51579 114.582 7.5594H103.267C103.929 4.74737 106.228 2.92782 108.941 2.92782ZM62.2282 26.797C60.6733 25.391 58.5891 24.6466 56.3229 24.6466C50.8643 24.6466 46.8613 28.8481 46.8613 34.2241C46.8613 39.6 50.8643 43.8015 56.3229 43.8015C58.5891 43.8015 60.6733 43.0571 62.2282 41.6511V43.5038H65.4207V24.9444H62.2282V26.797ZM62.2282 37.7805C61.153 39.5173 59.0688 40.791 56.4056 40.791C52.7665 40.791 50.1695 37.8962 50.1695 34.2241C50.1695 30.5519 52.7665 27.6571 56.4056 27.6571C59.0853 27.6571 61.153 28.9143 62.2282 30.6677V37.7805ZM77.9259 27.6571C80.1094 27.6571 81.7801 28.6165 82.971 29.8075L85.0056 27.5744C83.368 25.9038 81.0026 24.6466 77.9094 24.6466C72.4177 24.6466 68.365 28.8812 68.365 34.2241C68.365 39.5669 72.4177 43.8015 77.9094 43.8015C80.9861 43.8015 83.368 42.5444 85.0056 40.8737L82.971 38.6406C81.7801 39.8316 80.1094 40.791 77.9259 40.791C74.2868 40.791 71.6898 37.8962 71.6898 34.2241C71.6898 30.5519 74.2868 27.6571 77.9259 27.6571ZM101.878 26.797C100.323 25.391 98.2387 24.6466 95.9725 24.6466C90.5139 24.6466 86.5109 28.8481 86.5109 34.2241C86.5109 39.6 90.5139 43.8015 95.9725 43.8015C98.2387 43.8015 100.323 43.0571 101.878 41.6511V43.5038H105.07V24.9444H101.878V26.797ZM101.878 37.7805C100.803 39.5173 98.7184 40.791 96.0552 40.791C92.4161 40.791 89.8192 37.8962 89.8192 34.2241C89.8192 30.5519 92.4161 27.6571 96.0552 27.6571C98.7349 27.6571 100.803 28.9143 101.878 30.6677V37.7805ZM114.879 24.9444H108.577V43.5038H114.879C120.967 43.5038 124.49 39.3519 124.49 34.2241C124.506 29.0962 120.967 24.9444 114.879 24.9444ZM114.962 40.4932H111.77V27.9549H114.962C118.932 27.9549 121.264 30.7008 121.264 34.2241C121.264 37.7474 118.932 40.4932 114.962 40.4932ZM136.234 24.6466C131.04 24.6466 126.921 28.8481 126.921 34.2241C126.921 39.5669 130.974 43.8015 136.466 43.8015C139.691 43.8015 142.338 42.4617 143.926 40.791L141.891 38.5579C140.7 39.7489 138.815 40.791 136.466 40.791C133.091 40.791 130.527 38.3098 130.23 35.0015H145.299C145.216 28.4015 141.428 24.6466 136.234 24.6466ZM130.379 32.2226C131.04 29.394 133.356 27.591 136.052 27.591C138.881 27.5579 141.246 29.1789 141.693 32.2226H130.379ZM168.357 24.6466C166.472 24.6466 163.908 25.2752 162.154 27.6902C160.997 25.7549 158.995 24.6466 156.547 24.6466C154.694 24.6466 152.693 25.2752 151.32 26.979V24.9444H148.127V43.5038H151.32V31.1474C152.064 28.9639 153.702 27.6571 155.852 27.6571C158.532 27.6571 160.12 29.6586 160.12 32.3714V43.5038H163.312V32.1895C163.312 31.9744 163.312 31.7098 163.279 31.4451C163.991 29.0632 165.545 27.6571 167.845 27.6571C170.524 27.6571 172.079 29.6586 172.079 32.3714V43.5038H175.272V32.1895C175.255 27.5744 172.592 24.6466 168.357 24.6466ZM189.53 24.9444L184.518 33L179.506 24.9444H175.867L182.914 35.8617V43.5038H186.106V35.8617L193.153 24.9444H189.53Z" fill="#2351FF"/>
</g>
<defs>
<linearGradient id="paint0_linear" x1="0.000562406" y1="22.0632" x2="43.864" y2="22.0632" gradientUnits="userSpaceOnUse">
<stop stop-color="#2351FF"/>
<stop offset="0.5128" stop-color="#2351FF" stop-opacity="0"/>
</linearGradient>
<linearGradient id="paint1_linear" x1="15.566" y1="22.0632" x2="59.4294" y2="22.0632" gradientUnits="userSpaceOnUse">
<stop stop-color="#2351FF"/>
<stop offset="0.5128" stop-color="#2351FF" stop-opacity="0"/>
</linearGradient>
<clipPath id="clip0">
<rect width="193.17" height="44" fill="white"/>
</clipPath>
</defs>
</svg>
